<svg width="42" height="25" viewBox="0 0 42 25" fill="none" xmlns="http://www.w3.org/2000/svg">
<rect x="0.46875" y="0.943298" width="41.5238" height="24" rx="4" fill="#00C7D4"/>
<g clip-path="url(#clip0_1272_1772)">
<path d="M16.8842 13.0656V8.17484C16.8842 7.87695 16.8842 7.8765 17.1756 7.8765C17.7759 7.8765 18.3762 7.88495 18.977 7.87161C19.1792 7.86717 19.227 7.93119 19.2265 8.12326C19.2214 11.0645 19.2207 14.0055 19.2243 16.9461C19.2181 17.2279 19.2457 17.5094 19.3067 17.7847C19.4031 18.1813 19.6476 18.4334 20.0511 18.5321C20.262 18.5859 20.4787 18.6143 20.6965 18.6166C21.8445 18.6166 22.9933 18.6117 24.1404 18.6214C24.3323 18.6214 24.3588 18.5512 24.357 18.3898C24.3485 17.5753 24.3363 16.7594 24.5313 15.9587C24.7867 14.9125 25.2686 14.005 26.2526 13.4635C28.4765 12.2395 32.1523 13.1389 32.3194 16.7536C32.3645 17.7082 32.1771 18.6179 31.5921 19.4044C30.763 20.5159 29.6042 20.9468 28.24 20.925C28.1729 20.922 28.1091 20.8955 28.0599 20.8503C27.6546 20.5253 27.2893 20.1531 26.8597 19.857C26.7633 19.7903 26.7804 19.7294 26.8646 19.6685C27.288 19.3622 27.6703 19.0078 28.0716 18.6757C28.1428 18.6166 28.2207 18.613 28.3035 18.6157C28.5053 18.6266 28.7076 18.6062 28.903 18.5552C29.4524 18.4018 29.8087 18.0684 29.9023 17.5037C29.9838 17.0146 29.9757 16.5295 29.7672 16.0645C29.6348 15.7666 29.4236 15.5412 29.1182 15.4185C28.6021 15.2113 28.0748 15.1984 27.5672 15.4305C27.0488 15.667 26.8174 16.1192 26.7318 16.6536C26.7014 16.8512 26.6873 17.0509 26.6895 17.2507C26.6935 18.4067 26.6895 19.5627 26.6944 20.7187C26.6944 20.8792 26.6575 20.9348 26.4827 20.9343C24.4944 20.9277 22.5061 20.9317 20.5177 20.9281C19.7971 20.9281 19.0932 20.8245 18.446 20.4959C17.4323 19.978 17.0026 19.0972 16.9126 18.0217C16.8855 17.6975 16.886 17.3708 16.8851 17.0435C16.8824 15.7177 16.8821 14.3917 16.8842 13.0656Z" fill="white"/>
<path d="M11.9748 14.8552C11.9748 14.3292 11.9793 13.8032 11.9717 13.2772C11.9694 13.1194 12.0082 13.0549 12.1838 13.058C12.8215 13.0678 13.4594 13.0678 14.0974 13.058C14.2658 13.0558 14.3149 13.1069 14.3131 13.2723C14.305 14.2354 14.3185 15.1984 14.3032 16.1623C14.2888 17.0622 14.0996 17.927 13.6587 18.7233C13.0764 19.777 12.1748 20.4381 11.0088 20.7365C9.77076 21.053 8.53182 21.0175 7.33971 20.5515C5.86253 19.9735 4.98072 18.878 4.68258 17.3503C4.40696 15.9311 4.66727 14.5977 5.45765 13.371C5.55628 13.2176 5.62429 13.1932 5.78056 13.3088C6.26605 13.6689 6.76235 14.0153 7.26045 14.359C7.3924 14.4506 7.42708 14.5146 7.33971 14.676C6.90286 15.4803 6.83396 16.3264 7.13255 17.1894C7.38024 17.9052 7.91032 18.3351 8.6408 18.5232C9.19536 18.6686 9.7792 18.665 10.3319 18.513C11.3123 18.2462 11.9082 17.4846 11.9582 16.4131" fill="white"/>
<path d="M34.6511 15.4864C34.6511 13.7524 34.6538 12.0206 34.6466 10.288C34.6466 10.0906 34.6917 10.0159 34.9047 10.0212C35.5266 10.0336 36.1495 10.0296 36.7719 10.0234C36.9322 10.0234 36.9939 10.0652 36.9939 10.2364C36.9891 13.7319 36.9891 17.2272 36.9939 20.7221C36.9939 20.9 36.9291 20.9307 36.7687 20.9289C36.154 20.9218 35.5388 20.9169 34.9223 20.9289C34.7079 20.9342 34.6417 20.8786 34.6426 20.6621C34.6547 18.9348 34.6511 17.2092 34.6511 15.4864Z" fill="white"/>
<path d="M34.2456 7.86421C34.0889 7.46118 34.0491 7.02297 34.1308 6.59885C34.2142 6.18555 34.4251 5.80785 34.7345 5.51761C35.044 5.22736 35.4369 5.03879 35.8593 4.97779C36.5916 4.86841 37.2594 5.01202 37.8301 5.51132C37.9548 5.62025 37.9832 5.70162 37.8715 5.84034C37.6937 6.06016 37.5283 6.28948 37.3761 6.52726C37.263 6.70511 37.1901 6.72823 37.0415 6.55216C36.7523 6.20936 36.1781 6.12355 35.7845 6.33741C35.4467 6.52059 35.2927 6.87984 35.3855 7.26665C35.4657 7.601 35.8034 7.85265 36.2164 7.8611C36.7268 7.87088 37.2372 7.87088 37.7476 7.8611C37.9305 7.8571 38.0012 7.90556 37.9926 8.09452C37.9791 8.38263 37.9872 8.67252 37.9926 8.96063C37.9953 9.08867 37.9593 9.14558 37.8161 9.14514C36.4434 9.14099 35.0707 9.14099 33.698 9.14514C33.5579 9.14514 33.5178 9.09623 33.5178 8.96463C33.5237 8.66096 33.5251 8.35729 33.5178 8.05406C33.5138 7.91179 33.5548 7.85176 33.707 7.86243C33.8763 7.8731 34.0484 7.86421 34.2456 7.86421Z" fill="white"/>
<path d="M10.12 9.84021C10.12 10.1185 10.12 10.3978 10.12 10.6779L7.42188 11.4942C7.45083 11.4464 7.49158 11.4066 7.54032 11.3786C8.32305 10.8357 9.09542 10.2782 9.87319 9.72817C9.93129 9.68682 9.99208 9.61302 10.07 9.64547C10.1583 9.68104 10.12 9.77041 10.12 9.84021Z" fill="#E76B07"/>
<path d="M10.0671 13.412C10.0045 13.4386 9.9586 13.3786 9.91086 13.3448C9.12138 12.7868 8.3346 12.2262 7.54106 11.6717C7.44018 11.6011 7.3974 11.5499 7.42352 11.4912L10.1216 10.6749C10.1216 10.9666 10.1207 11.258 10.1189 11.549C10.1189 12.111 10.1189 12.6726 10.1189 13.2346C10.1198 13.2977 10.1446 13.3791 10.0671 13.412Z" fill="url(#paint0_linear_1272_1772)"/>
<path d="M4.9002 12.1602C4.81492 12.1601 4.73152 12.185 4.66058 12.2317C4.58963 12.2784 4.53432 12.3448 4.50164 12.4226C4.46897 12.5004 4.46039 12.586 4.47701 12.6686C4.49363 12.7511 4.53468 12.827 4.59499 12.8865C4.65529 12.9461 4.73213 12.9866 4.81577 13.003C4.89942 13.0194 4.98612 13.0109 5.06489 12.9787C5.14366 12.9464 5.21097 12.8918 5.25829 12.8218C5.30562 12.7517 5.33083 12.6694 5.33074 12.5852C5.33062 12.4725 5.28522 12.3645 5.20451 12.2848C5.12379 12.2051 5.01435 12.1603 4.9002 12.1602ZM4.9002 12.976C4.82188 12.9761 4.7453 12.9533 4.68014 12.9104C4.61498 12.8675 4.56417 12.8065 4.53414 12.7351C4.50411 12.6637 4.49621 12.5851 4.51143 12.5092C4.52665 12.4334 4.56432 12.3637 4.61967 12.309C4.67501 12.2543 4.74555 12.217 4.82235 12.2019C4.89915 12.1868 4.97877 12.1945 5.05113 12.2241C5.12349 12.2537 5.18535 12.3038 5.22887 12.368C5.27238 12.4323 5.29561 12.5079 5.29561 12.5852C5.29549 12.6887 5.25381 12.788 5.17969 12.8613C5.10558 12.9345 5.00507 12.9758 4.9002 12.976Z" fill="white"/>
<path d="M5.06285 12.5043C5.0643 12.4858 5.06184 12.4673 5.05563 12.4498C5.04943 12.4324 5.03962 12.4164 5.02682 12.4029C4.99632 12.3784 4.95746 12.3665 4.91829 12.3695H4.75391V12.8022H4.81516V12.6412H4.9273L4.998 12.8008H5.06466L4.98719 12.6283C5.01168 12.6185 5.03227 12.6011 5.04591 12.5787C5.05955 12.5563 5.06549 12.5302 5.06285 12.5043ZM4.91919 12.5901H4.81516V12.4216H4.91829C4.92955 12.4207 4.94085 12.4222 4.95148 12.426C4.96211 12.4297 4.97182 12.4357 4.97999 12.4434C4.99456 12.4606 5.00196 12.4827 5.0007 12.5052C5.00243 12.5282 4.995 12.551 4.97999 12.5687C4.97189 12.5762 4.96231 12.582 4.95185 12.5857C4.94138 12.5893 4.93027 12.5908 4.91919 12.5901Z" fill="white"/>
</g>
<defs>
<linearGradient id="paint0_linear_1272_1772" x1="8.06573" y1="10.7665" x2="10.9658" y2="12.6706" gradientUnits="userSpaceOnUse">
<stop stop-color="#B72905"/>
<stop offset="0.02" stop-color="#B92C05"/>
<stop offset="0.26" stop-color="#CD4806"/>
<stop offset="0.51" stop-color="#DC5B07"/>
<stop offset="0.75" stop-color="#E46707"/>
<stop offset="1" stop-color="#E76B07"/>
</linearGradient>
<clipPath id="clip0_1272_1772">
<rect width="33.5238" height="16" fill="white" transform="translate(4.46875 4.9433)"/>
</clipPath>
</defs>
</svg>
