<svg id="Layer_2" data-name="Layer 2" xmlns="http://www.w3.org/2000/svg" width="24" height="23.8" viewBox="0 0 24 23.8">
  <g id="Layer_1" data-name="Layer 1">
    <rect id="Rectangle_218" data-name="Rectangle 218" width="0.94" height="6.08" transform="translate(18.626 12.694)" fill="none"/>
    <path id="Path_561" data-name="Path 561" d="M22.42,14.23h.94V1H8.58V2.55H22.42Z" transform="translate(-2.556)" fill="none"/>
    <path id="Path_562" data-name="Path 562" d="M2.51,11.21a1.51,1.51,0,0,0,0,3H3.7v-3Z" transform="translate(-0.224 -1.63)" fill="none"/>
    <path id="Path_563" data-name="Path 563" d="M25.06,11.21h-.7v3h.7a1.51,1.51,0,1,0,0-3Z" transform="translate(-3.794 -1.63)" fill="none"/>
    <path id="Path_564" data-name="Path 564" d="M21.844,8.888h-.609V0H6.627V2.22H4.939V4.353H3.25V8.871H2.214a2.185,2.185,0,0,0,0,4.353H3.25V23.8H17.866V21.65h1.68V19.43h1.689V13.258h.609a2.185,2.185,0,1,0,0-4.353ZM7.5.871H20.364V12.387h-.818V2.22H7.5ZM4.12,22.929V13.258h3.8a2.76,2.76,0,0,0,5.432,0H17v9.671ZM18.675,3.09v9.3h-.81V7.234L14.993,4.353H5.809V3.09ZM14.958,5.563l1.61,1.619H14.95Zm-.871-.322V8.078H17v4.353h-3.63a2.751,2.751,0,0,0-5.467,0H4.12V5.223Zm-1.558,7.5a1.9,1.9,0,1,1-1.9-1.9,1.9,1.9,0,0,1,1.9,1.9Zm5.336.514h.81v7.521h-.81ZM2.2,12.387a1.314,1.314,0,0,1,0-2.612H3.25v2.612Zm18.15,6.172h-.818v-5.3h.818Zm1.48-6.172h-.609V9.776h.609a1.314,1.314,0,1,1,0,2.612Z" transform="translate(-0.224)" fill="#6e6b7b"/>
    <circle id="Ellipse_21" data-name="Ellipse 21" cx="0.86" cy="0.86" r="0.86" transform="translate(4.694 20.15)" fill="#6e6b7b"/>
  </g>
</svg>
