<svg id="Buyers_Guide" data-name="Buyers Guide" xmlns="http://www.w3.org/2000/svg" width="24" height="24" viewBox="0 0 24 24">
  <path id="Rectangle_204" data-name="Rectangle 204" d="M0,0H4A2,2,0,0,1,6,2V21a3,3,0,0,1-3,3H0a0,0,0,0,1,0,0V0A0,0,0,0,1,0,0Z" transform="translate(18)" fill="#6e6b7b"/>
  <path id="Subtraction_2" data-name="Subtraction 2" d="M17,24H0V0H17V24ZM1.591,22a.516.516,0,0,0-.531.5.523.523,0,0,0,.531.5.517.517,0,0,0,.532-.5A.511.511,0,0,0,1.591,22Zm0-4a.517.517,0,0,0-.531.5.523.523,0,0,0,.531.5.517.517,0,0,0,.532-.5A.511.511,0,0,0,1.591,18Zm7.442-7.979c-1.883,0-5.462.871-5.587,2.535a7.062,7.062,0,0,0,11.18,0C14.5,10.892,10.918,10.021,9.034,10.021ZM1.591,14a.523.523,0,0,0-.531.5.516.516,0,0,0,.531.5.511.511,0,0,0,.532-.5A.517.517,0,0,0,1.591,14Zm0-5a.5.5,0,1,0,0,1,.517.517,0,0,0,.532-.5A.511.511,0,0,0,1.591,9ZM9.034,3.7A2.718,2.718,0,0,0,6.242,6.326,2.716,2.716,0,0,0,9.034,8.953a2.718,2.718,0,0,0,2.8-2.627A2.72,2.72,0,0,0,9.034,3.7ZM1.591,5a.516.516,0,0,0-.531.5.523.523,0,0,0,.531.5.5.5,0,1,0,0-1Zm0-4a.523.523,0,0,0-.531.5.517.517,0,0,0,.531.5.511.511,0,0,0,.532-.5A.517.517,0,0,0,1.591,1Z" transform="translate(0 0)" fill="#6e6b7b"/>
</svg>
