<svg width="44" height="21" viewBox="0 0 44 21" fill="none" xmlns="http://www.w3.org/2000/svg">
<rect x="0.46875" y="0.515625" width="42.6685" height="20.24" rx="4" fill="#1A246B"/>
<g clip-path="url(#clip0_1272_1749)">
<path d="M25.1368 15.5345C24.7857 15.5345 24.4902 15.4384 24.25 15.2444L24.4985 14.8962C24.6795 15.0384 24.8911 15.1096 25.1331 15.1096C25.2541 15.1096 25.3501 15.0892 25.4213 15.0477C25.4924 15.007 25.5284 14.9507 25.5284 14.8805C25.5284 14.814 25.4952 14.7622 25.4286 14.7253C25.3621 14.6884 25.2568 14.6616 25.1127 14.6468C24.8338 14.6154 24.6296 14.5498 24.5003 14.451C24.3701 14.3512 24.3054 14.2089 24.3054 14.0242C24.3054 13.8395 24.383 13.6824 24.5382 13.5661C24.6934 13.4497 24.8957 13.3924 25.1451 13.3924C25.4453 13.3924 25.7039 13.47 25.9201 13.6261L25.6947 13.9623C25.5349 13.8515 25.3584 13.7951 25.1654 13.7951C25.0462 13.7951 24.9511 13.8145 24.88 13.8533C24.8088 13.8921 24.7728 13.9448 24.7728 14.0113C24.7728 14.0778 24.8033 14.1258 24.8652 14.1609C24.9271 14.196 25.0296 14.2228 25.1737 14.2404C25.7233 14.305 25.9986 14.5193 25.9986 14.8842C25.9986 15.0791 25.9191 15.2361 25.7603 15.3553C25.6014 15.4744 25.3935 15.5335 25.1358 15.5335L25.1368 15.5345Z" fill="white"/>
<path d="M27.1575 14.0104C27.3349 14.0104 27.4762 14.0695 27.5806 14.1886C27.6849 14.3078 27.7367 14.4685 27.7367 14.6717V15.4883H27.2776V14.6985C27.2776 14.6052 27.2545 14.5313 27.2092 14.4787C27.163 14.426 27.0993 14.3992 27.018 14.3992C26.9284 14.3992 26.8554 14.4297 26.8 14.4898C26.7446 14.5507 26.7169 14.6292 26.7169 14.7272V15.4874H26.2578V13.4395H26.7169V14.1997C26.8277 14.0732 26.9755 14.0094 27.1584 14.0094L27.1575 14.0104Z" fill="white"/>
<path d="M29.3561 15.3119C29.212 15.4504 29.0189 15.5197 28.7769 15.5197C28.5349 15.5197 28.3428 15.4504 28.1996 15.3119C28.0564 15.1733 27.9844 14.9913 27.9844 14.765C27.9844 14.5387 28.0564 14.3568 28.1996 14.2182C28.3428 14.0797 28.5358 14.0104 28.7769 14.0104C29.018 14.0104 29.212 14.0797 29.3561 14.2182C29.5002 14.3568 29.5722 14.5387 29.5722 14.765C29.5722 14.9913 29.5002 15.1733 29.3561 15.3119ZM28.7769 15.1308C28.8785 15.1308 28.9598 15.0967 29.0226 15.0283C29.0854 14.9599 29.1159 14.8722 29.1159 14.765C29.1159 14.6579 29.0845 14.5701 29.0226 14.5018C28.9598 14.4334 28.8785 14.3993 28.7769 14.3993C28.6753 14.3993 28.5968 14.4334 28.534 14.5018C28.4712 14.5701 28.4407 14.6579 28.4407 14.765C28.4407 14.8722 28.4721 14.9599 28.534 15.0283C28.5968 15.0967 28.6772 15.1308 28.7769 15.1308Z" fill="white"/>
<path d="M30.7411 14.0131C30.9443 14.0131 31.1105 14.0833 31.2399 14.2219C31.3692 14.3614 31.4348 14.5424 31.4348 14.765C31.4348 14.9876 31.3701 15.1687 31.2399 15.3082C31.1096 15.4476 30.9443 15.5169 30.7411 15.5169C30.5619 15.5169 30.4122 15.4606 30.2931 15.347V16.1136H29.834V14.0427H30.2321L30.2617 14.2126C30.3827 14.0796 30.5425 14.014 30.7411 14.014V14.0131ZM30.3854 15.0283C30.4492 15.0966 30.5314 15.1308 30.633 15.1308C30.7346 15.1308 30.8177 15.0976 30.8815 15.0301C30.9461 14.9627 30.9775 14.8749 30.9775 14.765C30.9775 14.6551 30.9452 14.5673 30.8815 14.4999C30.8168 14.4325 30.7346 14.3992 30.633 14.3992C30.5314 14.3992 30.4492 14.4334 30.3854 14.5018C30.3217 14.5701 30.2903 14.6579 30.2903 14.765C30.2903 14.8722 30.3217 14.9599 30.3854 15.0283Z" fill="white"/>
<path d="M32.6024 14.0131C32.8056 14.0131 32.9719 14.0833 33.1012 14.2219C33.2305 14.3614 33.2961 14.5424 33.2961 14.765C33.2961 14.9876 33.2314 15.1687 33.1012 15.3082C32.9709 15.4476 32.8056 15.5169 32.6024 15.5169C32.4232 15.5169 32.2736 15.4606 32.1544 15.347V16.1136H31.6953V14.0427H32.0934L32.123 14.2126C32.244 14.0796 32.4038 14.014 32.6024 14.014V14.0131ZM32.2468 15.0283C32.3105 15.0966 32.3927 15.1308 32.4943 15.1308C32.5959 15.1308 32.6791 15.0976 32.7428 15.0301C32.8075 14.9627 32.8389 14.8749 32.8389 14.765C32.8389 14.6551 32.8065 14.5673 32.7428 14.4999C32.6781 14.4325 32.5959 14.3992 32.4943 14.3992C32.3927 14.3992 32.3105 14.4334 32.2468 14.5018C32.183 14.5701 32.1516 14.6579 32.1516 14.765C32.1516 14.8722 32.183 14.9599 32.2468 15.0283Z" fill="white"/>
<path d="M33.9802 13.8293C33.9304 13.8764 33.8657 13.8995 33.7853 13.8995C33.705 13.8995 33.6403 13.8764 33.5904 13.8293C33.5406 13.7822 33.5156 13.7231 33.5156 13.651C33.5156 13.579 33.5406 13.5162 33.5914 13.47C33.6422 13.4238 33.7068 13.3998 33.7844 13.3998C33.862 13.3998 33.9267 13.4229 33.9775 13.47C34.0283 13.5171 34.0532 13.5771 34.0532 13.651C34.0532 13.7249 34.0283 13.7822 33.9784 13.8293H33.9802ZM33.5544 15.4883V14.0436H34.0135V15.4883H33.5544Z" fill="white"/>
<path d="M35.2527 14.0104C35.4319 14.0104 35.5751 14.0686 35.6813 14.1859C35.7875 14.3032 35.8411 14.4648 35.8411 14.6717V15.4883H35.382V14.6985C35.382 14.6052 35.3589 14.5313 35.3118 14.4787C35.2647 14.426 35.201 14.3993 35.1188 14.3993C35.0292 14.3993 34.9571 14.4297 34.9026 14.4898C34.8481 14.5507 34.8204 14.6293 34.8204 14.7272V15.4874H34.3613V14.0427H34.7594L34.789 14.2127C34.9017 14.0778 35.0569 14.0104 35.2546 14.0104H35.2527Z" fill="white"/>
<path d="M37.3699 15.2509C37.5749 15.3424 37.6775 15.4957 37.6775 15.71C37.6775 15.8947 37.6045 16.0425 37.4576 16.1534C37.3117 16.2633 37.1177 16.3187 36.8757 16.3187C36.6337 16.3187 36.4305 16.255 36.2873 16.1284C36.1441 16.0019 36.0832 15.8356 36.1026 15.6315H36.5441C36.5404 15.7266 36.5672 15.8014 36.6245 15.8541C36.6817 15.9067 36.7649 15.9326 36.8748 15.9326C36.9727 15.9326 37.0512 15.9104 37.1122 15.867C37.1722 15.8227 37.2027 15.7654 37.2027 15.6934C37.2027 15.6213 37.175 15.5622 37.1196 15.5225C37.0641 15.4828 36.9847 15.4624 36.8812 15.4624C36.6392 15.4624 36.4462 15.3959 36.3021 15.2638C36.158 15.1317 36.0859 14.9535 36.0859 14.7318C36.0859 14.5101 36.1598 14.3448 36.3086 14.2099C36.4573 14.075 36.6466 14.0067 36.8794 14.0067C36.9986 14.0067 37.1076 14.0298 37.2073 14.0769L37.3773 13.8663L37.7135 14.1092L37.5204 14.3346C37.6184 14.4454 37.6664 14.5784 37.6664 14.7327C37.6664 14.9572 37.5676 15.1308 37.3708 15.2537L37.3699 15.2509ZM36.6328 14.9775C36.6947 15.0412 36.7769 15.0726 36.8785 15.0726C36.9801 15.0726 37.0614 15.0412 37.1242 14.9793C37.187 14.9174 37.2175 14.8343 37.2175 14.7309C37.2175 14.6274 37.1861 14.5452 37.1242 14.4833C37.0623 14.4214 36.9801 14.3909 36.8785 14.3909C36.7769 14.3909 36.6947 14.4214 36.6328 14.4833C36.57 14.5452 36.5395 14.6274 36.5395 14.7309C36.5395 14.8343 36.5709 14.9147 36.6328 14.9784V14.9775Z" fill="white"/>
<path d="M9.99023 15.1318H22.5822L22.9184 13.6501H10.3255L9.99023 15.1318Z" fill="#F58B2D"/>
<path d="M6.43164 15.1318H9.84011L10.1754 13.6501H6.76787L6.43164 15.1318Z" fill="#FFB520"/>
<path d="M4.48438 15.1318H6.32162L6.65693 13.6501H4.81968L4.48438 15.1318Z" fill="#F6E246"/>
<path d="M25.8389 7.82619C25.8897 7.62667 25.9377 7.44747 25.9811 7.26735C26.0347 7.04566 26.0929 6.82397 26.1354 6.59951C26.1566 6.4859 26.2083 6.43879 26.322 6.43971C27.0665 6.44618 27.8119 6.4277 28.5545 6.46557C28.9037 6.48312 29.2593 6.5755 29.5909 6.69281C30.014 6.84245 30.3105 7.14265 30.3613 7.61281C30.377 7.75414 30.3585 7.90563 30.3244 8.04418C30.0001 9.38725 29.6695 10.7294 29.3406 12.0715C29.3221 12.1454 29.3037 12.2092 29.203 12.2082C28.7051 12.2045 28.2072 12.2045 27.7094 12.2027C27.6946 12.2027 27.6789 12.1953 27.6484 12.187C27.6632 12.1094 27.678 12.0318 27.6927 11.9551C27.4563 12.0226 27.2318 12.1103 27 12.1473C26.5483 12.2203 26.0929 12.236 25.6458 12.1002C25.0186 11.9099 24.5909 11.3732 24.6316 10.7959C24.6648 10.322 24.8348 9.89529 25.1581 9.53689C25.6273 9.01407 26.2397 8.75728 26.915 8.64829C27.3833 8.57347 27.8618 8.55499 28.3356 8.50881C28.4335 8.49957 28.5545 8.53282 28.6035 8.39981C28.6525 8.26495 28.5878 8.16796 28.4936 8.08298C28.3088 7.91487 28.0779 7.86314 27.8396 7.85667C27.2318 7.84005 26.624 7.8345 26.0162 7.82527C25.9654 7.82527 25.9137 7.82527 25.8389 7.82527V7.82619ZM27.9625 9.53874C27.629 9.5452 27.2189 9.63388 26.9556 9.75766C26.697 9.87958 26.5113 10.0662 26.4346 10.347C26.3275 10.7349 26.5196 10.9963 26.9224 11.0167C27.2494 11.0333 27.5394 10.9345 27.8137 10.7645C27.9523 10.6786 28.0308 10.564 28.0622 10.4052C28.1001 10.2112 28.1509 10.02 28.1989 9.82878C28.2747 9.53135 28.2756 9.53227 27.9625 9.53874Z" fill="white"/>
<path d="M18.4079 12.1806C18.4578 11.9718 18.504 11.7649 18.5575 11.5607C18.6878 11.0684 18.8319 10.5798 18.9519 10.0856C19.0766 9.57016 19.182 9.05012 19.2909 8.53192C19.3621 8.192 19.1903 7.91304 18.8439 7.87147C18.6222 7.84561 18.382 7.8724 18.165 7.93059C17.8878 8.00356 17.7327 8.2114 17.6634 8.49682C17.3743 9.69394 17.0731 10.8892 16.7794 12.0854C16.7591 12.1676 16.7286 12.2083 16.6344 12.2073C16.1254 12.2036 15.6174 12.2055 15.1084 12.2055C15.0881 12.2055 15.0678 12.199 15.0234 12.1916C15.0835 11.9515 15.1407 11.7169 15.2008 11.4841C15.5546 10.1151 15.9102 8.74714 16.2621 7.37729C16.3296 7.11588 16.3887 6.8517 16.4422 6.5866C16.4626 6.48499 16.506 6.45082 16.6104 6.45174C17.051 6.45636 17.4916 6.45359 17.9322 6.45359C18.0627 6.45359 18.1172 6.51794 18.0957 6.64664C18.092 6.66696 18.0901 6.68728 18.0837 6.74271C18.1631 6.727 18.2315 6.72146 18.2933 6.69837C18.7303 6.54041 19.1783 6.43419 19.6447 6.45636C19.8618 6.46652 20.0816 6.51086 20.2913 6.56905C20.8603 6.72516 21.1023 7.1907 21.1263 7.73938C21.1467 8.20493 21.0016 8.64369 20.8899 9.08614C20.6359 10.0884 20.3763 11.0897 20.113 12.09C20.101 12.1371 20.0299 12.2027 19.9856 12.2036C19.4877 12.2092 18.9889 12.2036 18.491 12.2018C18.4716 12.2018 18.4513 12.1916 18.4079 12.1796V12.1806Z" fill="white"/>
<path d="M10.7467 4.95348C10.6922 5.17887 10.647 5.37007 10.5999 5.56036C10.5361 5.81715 10.4622 6.07209 10.4087 6.33165C10.3865 6.44249 10.3348 6.46004 10.2378 6.4582C9.84428 6.45173 9.45171 6.44526 9.05821 6.44988C8.53078 6.45635 8.02366 6.5478 7.59045 6.87294C7.11012 7.23411 6.76281 7.69873 6.56513 8.26219C6.38686 8.76838 6.23814 9.28288 6.26585 9.83064C6.29172 10.3461 6.54574 10.6278 7.06578 10.6407C7.7678 10.6583 8.46981 10.6453 9.17183 10.6463C9.35749 10.6463 9.36303 10.6518 9.31685 10.831C9.20785 11.2531 9.09239 11.6744 8.98801 12.0983C8.96676 12.1833 8.92889 12.2083 8.85038 12.2083C8.20563 12.2055 7.56089 12.2212 6.91799 12.1953C6.33606 12.1722 5.77352 12.0485 5.29689 11.6827C4.67801 11.207 4.45355 10.5548 4.48772 9.80939C4.51913 9.11662 4.63275 8.434 4.86182 7.7754C5.17404 6.87941 5.65251 6.09888 6.47369 5.56959C7.08426 5.1761 7.7484 4.94886 8.48459 4.95256C9.17183 4.95533 9.85814 4.95256 10.5454 4.95256C10.6017 4.95256 10.6581 4.95256 10.7477 4.95256L10.7467 4.95348Z" fill="white"/>
<path d="M11.9211 12.2249C11.6274 12.1796 11.3263 12.1602 11.0399 12.0845C10.1587 11.8517 9.63405 11.218 9.67839 10.2823C9.7375 9.03163 10.204 7.92965 11.2053 7.11494C11.6958 6.7159 12.2851 6.53393 12.9169 6.48036C13.473 6.43325 14.005 6.49236 14.4937 6.78056C15.0479 7.10755 15.3185 7.61189 15.3638 8.23447C15.422 9.03532 15.143 9.75766 14.7966 10.4587C14.5204 11.0157 14.1482 11.4924 13.5838 11.7917C13.0656 12.0669 12.5179 12.2221 11.9211 12.2239V12.2249ZM11.3623 9.94517C11.342 10.6379 11.8519 11.0194 12.4329 10.7987C12.6518 10.7155 12.8735 10.5871 13.0397 10.4255C13.5321 9.94517 13.7427 9.32167 13.8184 8.6603C13.8729 8.18921 13.521 7.85298 13.0453 7.85206C12.6324 7.85206 12.3146 8.04142 12.0421 8.32869C11.5905 8.8044 11.4565 9.40573 11.3623 9.94517Z" fill="white"/>
<path d="M24.3861 10.88C24.3243 11.1682 24.2661 11.4462 24.2051 11.7233C24.1774 11.8499 24.1534 11.9792 24.109 12.1011C24.0915 12.151 24.025 12.2194 23.9816 12.2194C23.3377 12.2147 22.6884 12.2794 22.0547 12.1298C21.8423 12.0799 21.627 11.981 21.4506 11.8526C21.1208 11.6125 21.0645 11.2541 21.1523 10.8818C21.4035 9.80941 21.6705 8.74068 21.9282 7.66919C22.0824 7.02721 22.233 6.38524 22.3808 5.74142C22.4039 5.64073 22.439 5.58346 22.5526 5.58531C23.0348 5.59178 23.5169 5.59362 23.9991 5.59916C24.024 5.59916 24.049 5.60933 24.0979 5.62041C24.0407 5.8929 23.9853 6.15893 23.9252 6.4462H25.5029C25.4974 6.51548 25.5001 6.56628 25.4881 6.61339C25.3948 6.99211 25.296 7.36898 25.2055 7.74862C25.1824 7.84654 25.1186 7.85023 25.042 7.85023C24.6171 7.85023 24.1922 7.85762 23.7682 7.84746C23.6056 7.84377 23.5354 7.88071 23.4957 8.05345C23.3257 8.79241 23.1318 9.52675 22.9507 10.2629C22.8583 10.6389 23.0154 10.8449 23.407 10.8597C23.6897 10.8698 23.9732 10.867 24.2559 10.8698C24.291 10.8698 24.3261 10.8744 24.3861 10.8791V10.88Z" fill="white"/>
<path d="M38.0402 10.8597C38.0199 10.9659 38.0051 11.0573 37.983 11.1479C37.91 11.4564 37.8379 11.7658 37.7567 12.0716C37.7428 12.1233 37.68 12.2027 37.6421 12.2018C36.9983 12.1843 36.3545 12.1575 35.7116 12.1261C35.6247 12.1215 35.5379 12.0873 35.4548 12.0568C34.8904 11.8462 34.6595 11.4148 34.8073 10.7932C35.1241 9.45841 35.4548 8.12643 35.779 6.7926C35.864 6.44437 35.9453 6.09521 36.021 5.7442C36.0469 5.62319 36.0968 5.57516 36.2316 5.57793C36.7286 5.58717 37.2255 5.58163 37.7511 5.58163C37.6855 5.87629 37.6246 6.15155 37.5581 6.44806H39.1219C39.0859 6.65959 39.0609 6.8471 39.0203 7.03092C38.9713 7.25446 38.8984 7.47245 38.8549 7.69691C38.8328 7.81422 38.7783 7.83454 38.6748 7.83362C38.2342 7.82808 37.7936 7.83085 37.353 7.8253C37.2338 7.82346 37.1775 7.8641 37.1479 7.98326C36.9715 8.71021 36.7914 9.43717 36.6057 10.1623C36.4838 10.638 36.6408 10.8523 37.1396 10.8606C37.4324 10.8661 37.7253 10.8615 38.0393 10.8615L38.0402 10.8597Z" fill="white"/>
<path d="M35.2141 6.46926C35.1392 6.77038 35.0672 7.06597 34.9924 7.36155C34.9628 7.47702 34.9129 7.58878 34.8954 7.70609C34.8788 7.81879 34.8215 7.82987 34.7245 7.83172C34.3107 7.83911 33.8913 7.81324 33.4858 7.87513C32.7062 7.99429 32.2545 8.5051 32.0587 9.23575C31.9829 9.51748 31.9617 9.82045 31.9589 10.1142C31.9562 10.4938 32.2148 10.7913 32.5972 10.8254C33.0443 10.8661 33.4969 10.8532 33.9477 10.8642C34.0031 10.8652 34.0585 10.8642 34.1426 10.8642C34.0714 11.1497 34.0059 11.4101 33.9421 11.6706C33.9061 11.8175 33.883 11.9671 33.8359 12.1103C33.8202 12.1583 33.7481 12.2249 33.7038 12.223C33.0655 12.1999 32.4226 12.2082 31.7917 12.1269C30.9096 12.0133 30.3406 11.4536 30.1845 10.6232C30.1078 10.2176 30.19 9.81399 30.287 9.41957C30.481 8.6298 30.8311 7.92409 31.4527 7.37541C32.0485 6.84982 32.7552 6.56163 33.5422 6.49512C34.0687 6.45078 34.5998 6.46464 35.1282 6.45355C35.1485 6.45355 35.1679 6.46094 35.2122 6.47018L35.2141 6.46926Z" fill="white"/>
</g>
<defs>
<clipPath id="clip0_1272_1749">
<rect width="34.6685" height="12.24" fill="white" transform="translate(4.46875 4.51562)"/>
</clipPath>
</defs>
</svg>
