<svg width="35" height="25" viewBox="0 0 35 25" fill="none" xmlns="http://www.w3.org/2000/svg">
<g clip-path="url(#clip0_1272_1664)">
<path d="M0.498047 10.5946H32.872V19.3691C32.872 22.1851 30.5865 24.4604 27.7705 24.4604H5.59952C2.78351 24.4604 0.498047 22.1749 0.498047 19.3589V10.5946ZM22.6997 17.9917V20.7669H29.1785V17.9917H22.6997ZM14.3741 17.9917V20.7669H19.9245V17.9917H14.3741ZM4.20172 17.9917V20.7669H11.5989V17.9917H4.20172ZM32.872 6.88073H11.2213C11.4458 6.26855 11.558 5.61556 11.558 4.95237C11.558 3.15665 10.6908 1.46296 9.23177 0.401855H27.7603C30.5763 0.401855 32.8618 2.68732 32.8618 5.50333V6.87052L32.872 6.88073Z" fill="black"/>
<path d="M34.4837 17.6345C34.4837 21.532 31.331 24.6949 27.4335 24.6949C23.536 24.6949 20.373 21.5422 20.373 17.6447C20.373 13.7471 23.5258 10.5842 27.4233 10.5842C31.3208 10.5842 34.4735 13.7369 34.4837 17.6345Z" fill="#FF5100"/>
<path d="M27.423 23.7664C24.0356 23.7664 21.291 21.0218 21.291 17.6344C21.291 14.247 24.0356 11.5024 27.423 11.5024C30.8104 11.5024 33.555 14.247 33.555 17.6344C33.555 21.0218 30.8104 23.7664 27.423 23.7664Z" fill="#FF5100"/>
<path d="M29.6487 17.4508V15.8898C29.6487 14.7674 28.7407 13.8594 27.6183 13.8594H27.3123C26.1899 13.8594 25.2717 14.7674 25.2717 15.8898V17.4508H24.0371V21.4504H30.8221V17.4508H29.6487ZM28.7407 17.4508H26.1389V15.8898C26.1389 15.2674 26.6491 14.7572 27.2714 14.7572H27.5775C28.1999 14.7368 28.7203 15.2266 28.7407 15.8489C28.7407 15.8592 28.7407 15.8694 28.7407 15.8898V17.4508Z" fill="white"/>
<path d="M5.71178 0.411865C3.16104 0.411865 1.08984 2.48306 1.08984 5.0338C1.08984 7.58454 3.16104 9.65573 5.71178 9.65573C8.26252 9.65573 10.3337 7.58454 10.3337 5.0338C10.3337 2.48306 8.26252 0.411865 5.71178 0.411865ZM7.96663 6.71729L6.69126 7.64575L5.75259 6.0643L4.81392 7.64575L3.53855 6.71729L4.7527 5.31948L2.94678 4.92157L3.44672 3.42173L5.14041 4.15635L4.97717 2.42185H6.51781L6.35456 4.22777L8.01764 3.50336L8.48698 4.97258L6.78309 5.36029L7.97683 6.70708L7.96663 6.71729Z" fill="#FF5100"/>
</g>
<defs>
<clipPath id="clip0_1272_1664">
<rect width="33.986" height="24.2932" fill="white" transform="translate(0.498047 0.411987)"/>
</clipPath>
</defs>
</svg>
