<svg xmlns="http://www.w3.org/2000/svg" width="24.508" height="24.63" viewBox="0 0 24.508 24.63">
  <g id="Layer_1" data-name="Layer 1" transform="translate(0.008)">
    <path id="Path_534" data-name="Path 534" d="M22.36,0H14.64A2.14,2.14,0,0,0,12.5,2.14v8.47a5.28,5.28,0,0,0-.85,2.6A7.47,7.47,0,0,0,12,15.78a7.19,7.19,0,0,1,.1,4.33,3.21,3.21,0,0,1-3.87,2.5,4.33,4.33,0,0,1-2.6-1.39,1.91,1.91,0,0,1-.28-2.62,12.07,12.07,0,0,0,1.42-3.25.33.33,0,0,1,.3-.29,4.74,4.74,0,0,0,1.17-.39,1.55,1.55,0,0,0,.88-1.05.48.48,0,0,1,.14-.25,12.61,12.61,0,0,0,3-5.36A.86.86,0,0,0,12,7a.35.35,0,0,1-.13-.34,5.12,5.12,0,0,0,0-1.41,4.33,4.33,0,0,0-1.13-2.61.43.43,0,0,1-.11-.26.61.61,0,0,0-.27-.51c-.36-.24-.72-.49-1.09-.71a.54.54,0,0,0-.79.21c-.18.32-.35.64-.51,1a.49.49,0,0,0,.33.74c.37.12.74.23,1.12.33a.72.72,0,0,0,.73-.14c.16-.15.23-.09.33,0a4.65,4.65,0,0,1,.74,3.32.2.2,0,0,1-.14.19,1,1,0,0,0-.58.69,13.34,13.34,0,0,1-.76,1.93A9,9,0,0,1,8.3,11.71a.22.22,0,0,1-.27.11,1.48,1.48,0,0,0-1.11.12,1.64,1.64,0,0,1-1.58,0,1.48,1.48,0,0,0-1.11-.15c-.12,0-.18,0-.25-.1a7.76,7.76,0,0,1-1.11-1.62,12.68,12.68,0,0,1-1-2.44,1.05,1.05,0,0,0-.62-.74c-.11,0-.12-.13-.13-.22a5.45,5.45,0,0,1,.11-2A3.5,3.5,0,0,1,1.9,3.3c.07-.1.13-.12.23,0a.77.77,0,0,0,.77.17c.38-.09.75-.21,1.12-.33a.49.49,0,0,0,.32-.77q-.21-.44-.45-.87A.56.56,0,0,0,3,1.24c-.34.2-.66.42-1,.63a.67.67,0,0,0-.32.55.36.36,0,0,1-.13.26A3.77,3.77,0,0,0,.72,4.12a5.91,5.91,0,0,0-.28,2.5.537.537,0,0,1-.1.39A.94.94,0,0,0,.06,8.09,16.07,16.07,0,0,0,1.24,10.9,9.77,9.77,0,0,0,2.8,13.12a1,1,0,0,1,.33.55,1.09,1.09,0,0,0,.25.49,2.55,2.55,0,0,0,1.31.75c.2.07.25.14.18.35A14.16,14.16,0,0,1,3.55,18a3.34,3.34,0,0,0-.12,3.16A5.48,5.48,0,0,0,6.34,24a7.5,7.5,0,0,0,2,.55H9.69a6.54,6.54,0,0,0,1.15-.32A4.9,4.9,0,0,0,12.57,23a2.13,2.13,0,0,0,2.07,1.63h7.72a2.14,2.14,0,0,0,2.14-2.14V2.14A2.14,2.14,0,0,0,22.36,0ZM23.5,22.46a1.14,1.14,0,0,1-1.14,1.14H14.64a1.14,1.14,0,0,1-1.14-1.14v-.9c.05-.09.1-.18.14-.27a8.52,8.52,0,0,0,.23-5.7,9.14,9.14,0,0,1-.37-1.77v-.47a2.81,2.81,0,0,1,0-.29,3.33,3.33,0,0,1,1-2.08c.11-.12.19-.12.32,0a3.1,3.1,0,0,0,2.46.71A3.2,3.2,0,1,0,13.75,9a.24.24,0,0,1-.1.28l-.15.13V2.14A1.14,1.14,0,0,1,14.64,1h7.72A1.14,1.14,0,0,1,23.5,2.14ZM15.71,8.52a1.21,1.21,0,0,1,2.41,0,1.2,1.2,0,0,1-1.2,1.21,1.17,1.17,0,0,1-1.21-1.21Z" fill="#6e6b7b"/>
    <path id="Path_535" data-name="Path 535" d="M18.5,1.56A.47.47,0,1,0,19,2a.46.46,0,0,0-.5-.44Z" fill="#6e6b7b"/>
  </g>
</svg>
