<svg width="43" height="22" viewBox="0 0 43 22" fill="none" xmlns="http://www.w3.org/2000/svg">
<rect x="0.46875" y="0.751038" width="42.4862" height="21" rx="4" fill="#00C0AC"/>
<path d="M9.6793 11.8934H8.8435V11.1573C8.8435 11.1256 8.86929 11.101 8.89977 11.101H9.60076C9.63241 11.101 9.65703 11.0764 9.65703 11.0447V10.4129C9.65703 10.3812 9.63241 10.3566 9.60076 10.3566H8.89977C8.86812 10.3566 8.8435 10.332 8.8435 10.3004V10.0155C8.8435 9.98386 8.86929 9.95924 8.89977 9.95924H9.60076C9.63241 9.95924 9.65703 9.93463 9.65703 9.90298V9.27115C9.65703 9.2395 9.63241 9.21488 9.60076 9.21488H8.89977C8.86812 9.21488 8.8435 9.19026 8.8435 9.15861V8.13995H11.1317C11.1633 8.13995 11.188 8.11416 11.188 8.08368V6.88097C11.188 6.84932 11.1633 6.82471 11.1317 6.82471H8.8435V6.15537C8.8435 6.12372 8.86929 6.0991 8.89977 6.0991H11.1317C11.1633 6.0991 11.188 6.07448 11.188 6.04283V4.8073C11.188 4.77565 11.1633 4.75104 11.1317 4.75104H7.51068C7.47903 4.75104 7.45441 4.77683 7.45441 4.8073V9.15392C7.45441 9.18557 7.4298 9.21019 7.39815 9.21019H6.69715C6.6655 9.21019 6.64089 9.23598 6.64089 9.26646V9.89829C6.64089 9.92994 6.66668 9.95455 6.69715 9.95455H7.39815C7.4298 9.95455 7.45441 9.98034 7.45441 10.0108V10.2957C7.45441 10.3273 7.4298 10.3519 7.39815 10.3519H6.69715C6.6655 10.3519 6.64089 10.3777 6.64089 10.4082V11.04C6.64089 11.0717 6.66668 11.0963 6.69715 11.0963H7.39815C7.4298 11.0963 7.45441 11.1221 7.45441 11.1526V11.8887H6.61275C5.4288 11.8887 4.46875 12.8488 4.46875 14.0327V14.0656C4.46875 15.0537 5.13809 15.886 6.04891 16.1334C6.29391 17.0618 7.14026 17.7475 8.14603 17.7475C9.1518 17.7475 9.99815 17.0629 10.2431 16.1334C11.154 15.886 11.8233 15.0537 11.8233 14.0656V14.0327C11.8233 12.8488 10.8632 11.8887 9.6793 11.8887V11.8934ZM6.36424 14.8181C6.32673 14.8556 6.26695 14.858 6.22709 14.8228C6.00788 14.6341 5.39715 14.0292 5.92583 13.5099C6.12745 13.313 6.4041 13.2133 6.68543 13.2157L7.9444 13.2286C7.96199 13.2286 7.97136 13.2509 7.95847 13.2638L6.36307 14.817L6.36424 14.8181ZM8.89625 15.954C8.80013 16.1838 8.49769 16.4112 8.14017 16.4112C7.78264 16.4112 7.47903 16.1849 7.38291 15.954C7.36532 15.9142 7.37822 15.8673 7.4087 15.8356L8.06163 15.1827C8.105 15.1393 8.17533 15.1393 8.2187 15.1827L8.87164 15.8356C8.90329 15.8673 8.91384 15.9142 8.89742 15.954H8.89625ZM10.0474 14.8228C10.0075 14.8568 9.94774 14.8556 9.91023 14.8181L8.316 13.2649C8.3031 13.252 8.31131 13.2298 8.33007 13.2298L9.58904 13.2169C9.87037 13.2145 10.1482 13.3142 10.3498 13.5111C10.8785 14.0292 10.2666 14.6353 10.0486 14.824L10.0474 14.8228Z" fill="white"/>
<path d="M25.874 11.0201C25.1801 11.0201 24.485 11.0189 23.791 11.0201C23.3596 11.0213 22.9341 10.9978 22.5332 10.8161C22.4875 10.795 22.4453 10.8009 22.4019 10.822C22.1721 10.9298 21.926 10.9791 21.6763 10.9885C21.1488 11.0107 20.6201 11.0248 20.0973 10.9252C19.9414 10.8947 19.7878 10.8536 19.6495 10.7751C19.5698 10.7294 19.5018 10.7282 19.4151 10.7599C18.7621 10.9967 18.1057 11.0236 17.4539 10.761C16.1786 10.2488 16.1633 8.7835 16.8444 8.03679C17.2582 7.58313 17.7786 7.38737 18.3706 7.34166C19.0259 7.29125 19.6835 7.32993 20.34 7.31704C20.4501 7.31469 20.483 7.35807 20.483 7.46474C20.4795 8.03093 20.483 8.59828 20.4806 9.16447C20.4806 9.2688 20.4877 9.37195 20.5076 9.47511C20.5345 9.61109 20.6119 9.70955 20.7502 9.72714C20.9601 9.7541 21.1699 9.78458 21.3832 9.74472C21.4735 9.72831 21.5216 9.68259 21.5438 9.59585C21.5767 9.46925 21.5743 9.3403 21.5755 9.21136C21.5767 8.84093 21.579 8.46934 21.5755 8.09891C21.5743 7.98169 21.613 7.93715 21.7349 7.93832C22.1006 7.94418 22.4664 7.94418 22.8321 7.93832C22.947 7.93715 22.9833 7.977 22.9822 8.09071C22.9763 8.45762 22.9786 8.82335 22.9822 9.19026C22.9822 9.31451 22.9962 9.43994 23.0021 9.5642C23.0079 9.68025 23.0783 9.73183 23.1814 9.75644C23.2869 9.78223 23.3045 9.69783 23.3385 9.63336C23.6937 8.9605 24.1192 8.34039 24.7417 7.88674C25.2563 7.51163 25.8342 7.27718 26.4742 7.25257C27.0088 7.23147 27.5175 7.34048 27.9442 7.69919C28.3205 8.01451 28.508 8.433 28.5913 8.90541C28.712 9.58999 28.6042 10.2558 28.4307 10.9181C28.4025 11.026 28.3252 11.0189 28.2466 11.0189C27.5808 11.0189 26.9162 11.0189 26.2503 11.0189C26.1261 11.0189 26.0006 11.0189 25.8764 11.0189L25.874 11.0201ZM26.044 9.76934C26.4051 9.76934 26.7673 9.76582 27.1283 9.77168C27.2291 9.77286 27.2584 9.73534 27.2596 9.64157C27.262 9.51145 27.2491 9.3825 27.2244 9.25707C27.1553 8.91478 26.9841 8.65338 26.6219 8.57015C26.3289 8.50333 26.0522 8.56312 25.7955 8.71433C25.404 8.94409 25.1332 9.28873 24.9011 9.6697C24.8425 9.76699 24.8964 9.77051 24.9726 9.77051C25.3301 9.77051 25.6877 9.77051 26.0452 9.77051L26.044 9.76934ZM19.0224 9.10234C19.0224 8.9605 19.02 8.81983 19.0224 8.67799C19.0235 8.60297 18.9931 8.57249 18.9192 8.57367C18.8161 8.57601 18.7117 8.57601 18.6074 8.57367C18.4445 8.57015 18.2839 8.5807 18.1315 8.64517C17.897 8.74364 17.7939 8.91713 17.8103 9.19143C17.822 9.39071 17.9428 9.52903 18.1749 9.59468C18.4234 9.66501 18.6754 9.65446 18.9286 9.61929C19.0024 9.60874 19.0247 9.57006 19.0235 9.5009C19.0212 9.36844 19.0235 9.2348 19.0235 9.10117L19.0224 9.10234Z" fill="#1F293F"/>
<path d="M34.6716 10.9451C33.4571 10.9451 32.2427 10.9475 31.0283 10.9416C30.8923 10.9416 30.8384 10.9826 30.8161 11.1151C30.7423 11.5547 30.5254 11.9087 30.1515 12.1584C29.9956 12.2627 29.9944 12.2615 29.8561 12.1384C29.6146 11.9216 29.3754 11.7024 29.1316 11.4879C29.0449 11.4117 29.0695 11.3859 29.1633 11.3519C29.5208 11.2253 29.6333 11.0612 29.6333 10.679C29.6333 9.658 29.6333 8.63699 29.6333 7.61716C29.6333 7.42257 29.6357 7.42022 29.8268 7.42022C30.1304 7.42022 30.434 7.42374 30.7376 7.41905C30.8489 7.4167 30.89 7.45304 30.89 7.57027C30.8853 8.27009 30.8876 8.96991 30.8876 9.66972C30.8876 9.84556 30.8876 9.84673 31.0576 9.84673C32.2931 9.84673 33.5286 9.84673 34.763 9.84673C34.9201 9.84673 34.9189 9.84673 34.8849 9.69434C34.6938 8.83744 35.0115 7.99696 35.7828 7.58199C36.1404 7.38974 36.5284 7.3323 36.9293 7.33699C37.2575 7.34051 37.5763 7.39092 37.8706 7.54448C38.4461 7.84457 38.7497 8.33807 38.8189 8.96873C38.8904 9.61815 38.7439 10.2429 38.5329 10.8548C38.5106 10.9205 38.4684 10.9463 38.4028 10.9463C38.2738 10.9463 38.1449 10.9463 38.0159 10.9463C36.9011 10.9463 35.7864 10.9463 34.6716 10.9463V10.9451ZM36.866 9.84673C37.0524 9.84673 37.2399 9.84673 37.4263 9.84673C37.4943 9.84673 37.533 9.82563 37.5447 9.75178C37.5775 9.53257 37.5904 9.3122 37.5611 9.09416C37.5213 8.8011 37.3841 8.57721 37.0805 8.49046C36.9422 8.45178 36.8015 8.45764 36.662 8.48109C36.3654 8.52915 36.1603 8.72843 36.1017 9.02383C36.0513 9.27586 36.097 9.51851 36.1767 9.75881C36.2013 9.83384 36.2529 9.8479 36.3209 9.84673C36.5038 9.84556 36.6855 9.84673 36.8683 9.84673H36.866Z" fill="#1F293F"/>
<path d="M25.5148 14.9635C25.5148 14.1301 25.5148 13.2978 25.5148 12.4643C25.5148 12.2908 25.5172 12.2873 25.6872 12.2873C26.394 12.2873 27.1009 12.2862 27.8077 12.292C28.1301 12.2944 28.4442 12.36 28.7432 12.4843C29.2261 12.6859 29.5414 13.0352 29.6446 13.5533C29.756 14.1172 29.7056 14.6564 29.3492 15.1358C29.239 15.2835 29.1042 15.4101 28.9448 15.5016C28.8627 15.5485 28.8487 15.5871 28.8979 15.6751C29.2425 16.2834 29.5813 16.8954 29.9212 17.5061C29.9963 17.6409 29.9916 17.6479 29.8392 17.6491C29.4066 17.6491 28.9741 17.6456 28.5415 17.6514C28.4302 17.6526 28.3692 17.6163 28.3188 17.5166C28.0633 17.0067 27.7972 16.5027 27.5416 15.9927C27.4959 15.9025 27.4408 15.8591 27.3388 15.8673C27.2603 15.8743 27.1806 15.8743 27.102 15.8673C26.9778 15.8556 26.9473 15.9095 26.9485 16.0267C26.9532 16.5144 26.9473 17.0009 26.9532 17.4885C26.9543 17.6174 26.911 17.6538 26.7879 17.6514C26.4139 17.6456 26.04 17.6456 25.6649 17.6514C25.5512 17.6526 25.5137 17.6139 25.5137 17.5002C25.5172 16.655 25.516 15.8099 25.516 14.9635H25.5148ZM26.9497 14.0586C26.9497 14.2379 26.9497 14.4161 26.9497 14.5954C26.9497 14.6599 26.9579 14.7138 27.0399 14.7127C27.272 14.7103 27.5053 14.7291 27.735 14.6857C28.0961 14.6177 28.2918 14.3704 28.2825 13.9953C28.2743 13.6823 28.0949 13.4924 27.7597 13.4549C27.5287 13.4291 27.2966 13.4244 27.0634 13.4267C26.9766 13.4267 26.9461 13.4631 26.9473 13.5475C26.9508 13.7174 26.9473 13.8886 26.9473 14.0586H26.9497Z" fill="#1F293F"/>
<path d="M25.0002 14.8873C25.0095 15.552 24.8982 16.1357 24.5723 16.6621C24.1726 17.3091 23.5806 17.6479 22.8304 17.7288C22.3709 17.7792 21.9242 17.7346 21.4976 17.5553C20.8704 17.2927 20.4484 16.8238 20.2292 16.1873C19.9315 15.3222 19.9279 14.4489 20.2726 13.5967C20.5938 12.8019 21.2057 12.3483 22.0485 12.2193C22.5748 12.1384 23.0953 12.1736 23.59 12.3916C24.3402 12.7234 24.7435 13.3294 24.9193 14.1078C24.9802 14.3809 25.0131 14.6575 24.999 14.885L25.0002 14.8873ZM22.508 16.4968C22.5584 16.4944 22.6041 16.4933 22.6499 16.4886C22.6745 16.4862 22.6991 16.4804 22.7225 16.4745C23.073 16.3878 23.2735 16.1404 23.386 15.8204C23.5865 15.2483 23.5853 14.6693 23.3942 14.0937C23.3485 13.9542 23.2688 13.8311 23.1738 13.7186C22.8433 13.3282 22.0497 13.2837 21.7109 13.9272C21.5948 14.1476 21.5362 14.3856 21.5151 14.6329C21.4765 15.0866 21.4964 15.5344 21.7003 15.9517C21.8633 16.2858 22.1188 16.4968 22.5068 16.4979L22.508 16.4968Z" fill="#1F293F"/>
<path d="M38.2078 17.6491C37.9956 17.6491 37.7835 17.6467 37.5713 17.6502C37.4846 17.6514 37.4447 17.6186 37.4259 17.5342C37.3591 17.2376 37.2853 16.9434 37.2196 16.6456C37.1985 16.5484 37.1516 16.519 37.0567 16.519C36.6581 16.5226 36.2584 16.5226 35.8587 16.519C35.7637 16.519 35.718 16.5472 35.6969 16.6456C35.6348 16.9387 35.5598 17.2294 35.4965 17.5225C35.4754 17.6174 35.4296 17.6502 35.3335 17.6491C34.935 17.6456 34.5352 17.6491 34.1355 17.6467C33.9972 17.6467 33.9913 17.6362 34.0312 17.5025C34.5235 15.8814 35.0158 14.2602 35.5093 12.639C35.6172 12.285 35.6184 12.285 35.9923 12.285C36.4002 12.285 36.807 12.2873 37.2149 12.2826C37.3158 12.2814 37.3626 12.3178 37.3919 12.4139C37.9066 14.1148 38.4235 15.8157 38.9428 17.5166C38.9756 17.6256 38.9416 17.6491 38.8432 17.6479C38.631 17.6444 38.4188 17.6479 38.2066 17.6479L38.2078 17.6491ZM36.4671 13.415C36.31 14.0433 36.1705 14.6681 36.0193 15.2894C35.9993 15.3726 36.0333 15.3937 36.1072 15.3925C36.3393 15.3914 36.5726 15.3902 36.8047 15.3925C36.8973 15.3937 36.9195 15.3609 36.8984 15.2718C36.8304 15.001 36.7683 14.7302 36.705 14.4583C36.6253 14.1101 36.5468 13.762 36.4671 13.4138V13.415Z" fill="#1F293F"/>
<path d="M31.9671 17.7511C31.2368 17.7358 30.5804 17.5131 30.0083 17.0501C29.9368 16.9926 29.9298 16.9481 29.9895 16.8778C30.2158 16.6117 30.4409 16.3432 30.6601 16.0713C30.7222 15.9951 30.7656 15.9951 30.8429 16.0525C31.1196 16.2588 31.4232 16.4124 31.7643 16.4757C31.9366 16.5073 32.1125 16.5097 32.2836 16.4651C32.4278 16.4276 32.5485 16.3596 32.5708 16.192C32.5907 16.0408 32.5321 15.9294 32.3551 15.8509C31.9987 15.6903 31.6377 15.5403 31.2755 15.3926C30.9344 15.2531 30.6308 15.0667 30.4069 14.7654C29.9931 14.2074 30.0282 13.3892 30.4889 12.8687C30.8781 12.428 31.3786 12.224 31.9542 12.1924C32.6306 12.1537 33.2343 12.3483 33.7618 12.7785C33.9165 12.9039 33.9177 12.9039 33.7946 13.0586C33.6164 13.2837 33.4347 13.5064 33.2601 13.7338C33.2038 13.8077 33.1616 13.8112 33.0866 13.7596C32.7431 13.524 32.3703 13.3939 31.9472 13.4478C31.8675 13.4584 31.7924 13.4771 31.7233 13.5193C31.5439 13.6319 31.5287 13.8581 31.6916 13.9917C31.8065 14.0855 31.9448 14.1336 32.0796 14.1875C32.3844 14.3094 32.6927 14.4255 32.9975 14.5474C33.5426 14.7642 33.9329 15.1194 34.0267 15.729C34.1568 16.58 33.7067 17.2939 32.858 17.6022C32.5684 17.7077 32.2684 17.7417 31.9636 17.7511H31.9671Z" fill="#1F293F"/>
<path d="M16.3535 14.9705C16.3535 14.1371 16.3535 13.3036 16.3535 12.4713C16.3535 12.2885 16.3535 12.2873 16.5305 12.2873C17.5832 12.2873 18.6347 12.2873 19.6873 12.2873C19.8573 12.2873 19.8585 12.2885 19.8585 12.4631C19.8585 12.755 19.8526 13.0469 19.8608 13.3376C19.8643 13.4666 19.8174 13.5017 19.6944 13.5005C19.12 13.4959 18.5468 13.4982 17.9724 13.4982C17.8071 13.4982 17.8047 13.5005 17.8047 13.6658C17.8047 13.8862 17.8118 14.1078 17.8024 14.3281C17.7965 14.4583 17.8458 14.4899 17.9677 14.4887C18.4459 14.4829 18.9242 14.4864 19.4025 14.4864C19.5713 14.4864 19.5748 14.4899 19.5748 14.6634C19.5748 14.9553 19.5713 15.2472 19.5771 15.5379C19.5795 15.6563 19.5373 15.6996 19.4177 15.6985C18.9394 15.6938 18.4612 15.6961 17.9829 15.6961C17.8059 15.6961 17.8047 15.6961 17.8047 15.879C17.8047 16.4124 17.8047 16.9457 17.8047 17.4791C17.8047 17.6385 17.7942 17.6479 17.6336 17.6479C17.2632 17.6479 16.8927 17.6479 16.5235 17.6479C16.3547 17.6479 16.3535 17.6467 16.3535 17.4697C16.3535 16.6363 16.3535 15.8028 16.3535 14.9705Z" fill="#1F293F"/>
<path d="M19.4346 5.16486C19.8355 5.16486 20.1285 5.45322 20.1309 5.85295C20.1332 6.26441 19.8343 6.57153 19.4311 6.57153C19.0407 6.57153 18.7277 6.25737 18.7266 5.8635C18.7254 5.47081 19.0349 5.16486 19.4346 5.16486Z" fill="#1F293F"/>
<path d="M18.5332 5.86001C18.5332 6.2656 18.2226 6.57624 17.8205 6.57038C17.4384 6.56569 17.1277 6.24568 17.1289 5.86001C17.1301 5.46263 17.4372 5.16137 17.8393 5.16371C18.2402 5.16488 18.5332 5.45911 18.5332 5.86001Z" fill="#1F293F"/>
<path d="M36.1914 5.78848C36.1914 5.37586 36.4774 5.08983 36.8901 5.09101C37.3015 5.09101 37.577 5.37586 37.5746 5.79786C37.5723 6.2058 37.2828 6.5012 36.8889 6.49768C36.4915 6.49416 36.1914 6.18821 36.1914 5.78848Z" fill="#1F293F"/>
</svg>
