<?xml version="1.0" encoding="UTF-8"?>
<svg xmlns="http://www.w3.org/2000/svg" version="1.1" viewBox="0 0 976.8 330.2">
  <defs>
    <style>
      .cls-1 {
        fill: #d44e3a;
      }

      .cls-2 {
        fill: #b83b33;
      }

      .cls-3 {
        fill: #ef5a41;
      }
    </style>
  </defs>
  <!-- Generator: Adobe Illustrator 28.7.5, SVG Export Plug-In . SVG Version: 1.2.0 Build 176)  -->
  <g>
    <g id="Layer_1">
      <g>
        <path class="cls-3" d="M745.4,60.2c0,14.7-.1,29.3,0,44,.3,23.6-4.8,45.6-18,65.5-2,3-.6,4.4,1.4,6.3,10.7,10.3,20.9,21,28.6,33.9,9.8,16.7,13.2,34.4,9,53.3-4.2,18.7-10.8,36.1-25.6,49.2-25.2,22.3-59.9,23.7-86.8,3.7-10.3-7.7-18-17.7-26-27.5-7.9-9.6-17.5-14.7-30.3-11.3-11.7,3.1-17.4,10.9-18,25-.3,5.8-.2,11.7,0,17.5,0,3.7-1.1,5.5-5.1,5.5-11.7-.2-23.3,0-35,0-2.6,0-4.5-.8-5.1-3.6-6.3-27.3-3.3-52.8,15.5-74.7,19-22.2,51.1-29.2,78-17.7,15.7,6.8,28.2,17.5,38.6,30.8,3.4,4.3,6.7,8.7,11.1,12.1,11.5,8.9,26.6,6.6,35-5.2,10.7-15,7.4-41.3-6.8-53-8.5-7-18.2-8.7-28.6-5.3-27.7,9-55.2,8.9-82.1-2.3-33.3-13.9-53.1-39.5-60-74.6-6.6-33.4-1.3-64.8,20-92.2,17.6-22.8,41.5-35,69.9-38.4,27.1-3.3,52.4,2.3,75.3,17.3,2.8,1.8,4,1.7,4.3-1.8.4-3.8,1.3-7.6,1.6-11.4.3-3.9,2.2-5.1,5.8-5.1,9.2.1,18.3.2,27.5,0,4.6,0,6.1,1.7,6.1,6.2-.2,18,0,36,0,54ZM586.2,107.8c-1.5,27.7,19.7,53.7,52.7,54,30.1.3,53.3-23.5,53.3-53.9,0-31-22.6-53.9-53.4-53.9-30.8,0-52.5,22.2-52.6,53.8Z"/>
        <path class="cls-3" d="M284.3,145.5c0,20.8,0,41.7,0,62.5,0,7.1,0,7.1-7.3,7.2-12.8,0-25.7,0-38.5,0-7.3,0-7.3,0-7.3-7.2,0-40.7,0-81.3,0-122,0-15-8.8-26.8-22.4-30.8-19.8-5.8-39.3,8.5-39.4,29.3-.2,40.8,0,81.7,0,122.5q0,8.2-8.3,8.2c-12.8,0-25.7-.2-38.5,0-5.1.1-6.6-1.7-6.5-6.6.2-40,0-80,0-120,0-13.2-4.3-24.1-16.5-30.9-17.6-9.9-45.6-.2-46,29.1-.2,16.5,0,33,0,49.5,0,24,0,48,0,72,0,6.7-.2,6.9-6.6,6.9-13.7,0-27.3,0-41,0-4.1,0-5.6-1.4-5.6-5.5,0-42.2-.9-84.4.4-126.5C1.6,49,18.3,22.9,49.8,8.5c31-14.1,60.8-9.9,87.9,11,3.5,2.7,5.6,3,9.2.2,31.8-24.6,70.4-25.9,102.9-2.5,22.3,16.1,33.7,38.8,34.4,66.3.5,20.7.1,41.3.1,62Z"/>
        <path class="cls-3" d="M514.7,103.5c-.1,34.9-9.5,61.3-31.1,82.6-18.5,18.3-41.4,27.2-66.9,28.8-29.3,1.9-56.3-5.1-79.1-24.6-18.9-16.1-29.9-36.9-33.8-61.3-5.8-36.9,1.6-70.5,28.2-98,18.9-19.5,42.8-28.9,69.9-30.2,25.8-1.3,49.8,4.4,70.7,20,29.1,21.8,41.8,51.7,42.1,82.5ZM461.3,108.6c0-31.4-22.2-54.4-52.8-54.4-30.5,0-53.1,22.8-53.2,53.7,0,30.9,22.2,54,52.1,54.1,31.1.1,53.8-22.4,53.9-53.3Z"/>
        <path class="cls-1" d="M908.1,157.5c1.1-44.4,1-94,1.2-143.7,0-6.8.6-7.2,6.8-4.3,33,15.6,52.8,41.7,58.9,77.4,5.3,31.2.1,60.8-18.9,86.9-10.9,15.1-25.4,25.7-42.5,32.9-3.8,1.6-5.5.8-5.5-3.6.1-13.5,0-27,0-45.7Z"/>
        <path class="cls-3" d="M872.8,0c8.3.3,19.2,1.4,29.8,4.7,5.3,1.6,5.5,2.6,1.8,6.6-37.2,40.9-74.3,81.9-111.5,122.8-5.4,5.9-10.7,11.9-16,17.9-2.4,2.7-4.1,3.1-5.6-.8-17.1-44.5-7.7-100.4,35.1-131.6C823,7.5,847.2,0,872.8,0Z"/>
        <path class="cls-2" d="M817.9,145.6c40.4,2,70.1,20.4,87.5,57.6,2.5,5.4,2.2,6.2-3.4,7.6-41.2,10-78.4,3.4-109.5-27-6.7-6.6-11.8-14.4-16.3-22.6-2-3.6-1.1-5.3,2.4-6.8,12.5-5.5,25.5-8.7,39.4-8.7Z"/>
      </g>
    </g>
  </g>
</svg>