<svg xmlns="http://www.w3.org/2000/svg" width="72" height="32" viewBox="0 0 72 32" fill="none" class="svg replaced-svg">
<g clip-path="url(#clip0_255_2368)">
<path fill-rule="evenodd" clip-rule="evenodd" d="M17.0953 25.1635C17.0953 25.9231 16.4796 26.5386 15.7202 26.5386H10.2428V5.96972H4.99675V26.5386H0.0429688V31.7847H17.0953C19.9923 31.7847 22.3411 29.436 22.3411 26.5386V0.21875H17.0953V25.1635Z" fill="black"></path>
<path fill-rule="evenodd" clip-rule="evenodd" d="M49.0394 26.5199V26.5094H34.887C34.1272 26.5094 33.5119 25.8934 33.5119 25.1342V0.198242H28.2656V26.5177C28.2656 29.4151 30.6145 31.764 33.5119 31.764H41.1316H49.0394H57.1097L54.4141 26.5199H49.0394Z" fill="black"></path>
<path fill-rule="evenodd" clip-rule="evenodd" d="M65.9803 27.0362C64.2665 27.0362 63.7801 26.3569 63.2444 24.8377L61.4962 17.8907C60.6554 14.5487 59.5324 12.208 54.2453 12.208H42.1738V16.9775H54.0944C55.7816 16.9775 56.2785 17.6381 56.8047 19.1093C56.8103 19.1316 56.8157 19.1533 56.8212 19.1761L58.5694 26.1226C59.8771 31.1595 62.397 31.8053 65.8205 31.8053H71.0941V27.0362H65.9803Z" fill="#1ED68D"></path>
</g>
<defs>
<clipPath id="clip0_255_2368">
<rect width="71.302" height="32" fill="white"></rect>
</clipPath>
</defs>
</svg>