<svg xmlns="http://www.w3.org/2000/svg" width="24.001" height="24" viewBox="0 0 24.001 24">
  <g id="Orders" transform="translate(0.001 0)">
    <path id="Path_311" data-name="Path 311" d="M209.2,177.932q4,0,8.006,0a4.251,4.251,0,0,1,2.03.428,3.311,3.311,0,0,1,1.974,3.025c.015,2.9.005,5.8,0,8.7,0,.6-.292.872-.937.873-1.542,0-3.084.006-4.624,0-.275,0-.353.073-.352.324q.013,4.8.006,9.6a2.136,2.136,0,0,1-.044.5.749.749,0,0,1-.707.557c-.09,0-.18,0-.27,0H198.225c-.721,0-1-.256-1-.914q0-9.808,0-19.619a3.488,3.488,0,0,1,3.114-3.409,5.689,5.689,0,0,1,.888-.055Q205.213,177.928,209.2,177.932Zm5.169,1.506a.344.344,0,0,0-.251-.041q-6.489,0-12.98,0a3.152,3.152,0,0,0-.75.081,1.943,1.943,0,0,0-1.573,1.91q0,9.348,0,18.7c0,.383,0,.384.411.384h14.062c.424,0,.424,0,.424-.4q0-9.272,0-18.545a3.747,3.747,0,0,1,.029-.621A3.572,3.572,0,0,1,214.373,179.438Zm5.255,5.771q0-1.818,0-3.637a2.59,2.59,0,0,0-.041-.595,2.177,2.177,0,0,0-2.427-1.542,2.04,2.04,0,0,0-1.845,1.964c-.009,2.6,0,5.2-.008,7.8,0,.231.08.3.326.3,1.216-.01,2.432-.012,3.648,0,.271,0,.356-.069.354-.323C219.621,187.848,219.628,186.528,219.628,185.209Z" transform="translate(-197.223 -177.932)" fill="#6e6b7b"/>
    <path id="Path_312" data-name="Path 312" d="M205.441,188.818a3.734,3.734,0,0,1-.482-7.436,3.677,3.677,0,0,1,2.709.7c.163.119.254.109.383-.033.215-.236.446-.458.676-.679a.769.769,0,0,1,1.093-.043.756.756,0,0,1,0,1.092c-.275.3-.567.582-.859.863a.264.264,0,0,0-.068.339,3.744,3.744,0,0,1-3.011,5.193A3.227,3.227,0,0,1,205.441,188.818Zm2.174-4.136a.47.47,0,0,0-.214.166c-.429.426-.85.86-1.285,1.279a.751.751,0,0,1-1.147,0c-.3-.289-.592-.58-.877-.88a.736.736,0,0,1-.016-1.049.757.757,0,0,1,1.052-.05,3.105,3.105,0,0,1,.3.287c.082.087.147.094.236,0q.489-.5.987-.99c.1-.094.111-.164-.019-.239a2.163,2.163,0,0,0-2.288-.036,2.084,2.084,0,0,0-1.109,1.973,2.211,2.211,0,1,0,4.382-.464Z" transform="translate(-196.913 -177.932)" fill="#6e6b7b"/>
    <path id="Path_313" data-name="Path 313" d="M207.349,191.648c1.158,0,2.315,0,3.472,0a.736.736,0,0,1,.785.7.755.755,0,0,1-.716.824,2.923,2.923,0,0,1-.311.007h-5.7c-.337,0-.674.007-1.011,0a.755.755,0,0,1-.794-.693.739.739,0,0,1,.8-.831C205.035,191.645,206.192,191.648,207.349,191.648Z" transform="translate(-196.814 -178.485)" fill="#6e6b7b"/>
    <path id="Path_314" data-name="Path 314" d="M207.323,198.987q-1.708,0-3.419,0a.731.731,0,0,1-.83-.695.751.751,0,0,1,.77-.822c.085-.008.172-.005.259-.005h6.475a2.277,2.277,0,0,1,.387.028.75.75,0,0,1-.119,1.493C209.672,198.99,208.5,198.987,207.323,198.987Z" transform="translate(-196.814 -178.718)" fill="#6e6b7b"/>
    <path id="Path_315" data-name="Path 315" d="M207.342,196.084c-1.157,0-2.314,0-3.471,0a.747.747,0,0,1-.8-.842.726.726,0,0,1,.5-.632,1.276,1.276,0,0,1,.434-.055h6.657a2.26,2.26,0,0,1,.233.006.753.753,0,0,1,.71.8.744.744,0,0,1-.768.718c-.751.008-1.5,0-2.254,0Z" transform="translate(-196.814 -178.601)" fill="#6e6b7b"/>
    <path id="Path_316" data-name="Path 316" d="M201.656,195.324a.765.765,0,0,1-.759.757.779.779,0,0,1-.759-.763.792.792,0,0,1,.766-.76A.767.767,0,0,1,201.656,195.324Z" transform="translate(-197.223 -178.601)" fill="#6e6b7b"/>
    <path id="Path_317" data-name="Path 317" d="M201.656,192.415a.767.767,0,0,1-.761.756.8.8,0,0,1-.756-.771.772.772,0,0,1,.769-.75A.763.763,0,0,1,201.656,192.415Z" transform="translate(-197.223 -178.485)" fill="#6e6b7b"/>
    <path id="Path_318" data-name="Path 318" d="M200.893,198.987a.759.759,0,0,1-.755-.757.778.778,0,0,1,.77-.749.753.753,0,1,1-.015,1.506Z" transform="translate(-197.223 -178.718)" fill="#6e6b7b"/>
  </g>
</svg>
