<svg id="Products" xmlns="http://www.w3.org/2000/svg" width="24" height="23.912" viewBox="0 0 24 23.912">
  <path id="Products-2" data-name="Products" d="M146.164,258.477c0,1.835-.006,3.67,0,5.505a.8.8,0,0,1-.5.8q-5.522,2.748-11.033,5.517a.947.947,0,0,1-.936,0q-5.51-2.769-11.033-5.517a.8.8,0,0,1-.5-.8q.012-5.517,0-11.033a.8.8,0,0,1,.5-.8q5.521-2.747,11.033-5.517a.947.947,0,0,1,.936,0q5.51,2.769,11.033,5.517a.793.793,0,0,1,.5.8C146.158,254.789,146.164,256.633,146.164,258.477ZM133.6,263.889c0-1.6,0-3.194,0-4.791a.394.394,0,0,0-.256-.409q-4.881-2.433-9.756-4.876c-.259-.129-.262-.127-.262.154q0,4.779,0,9.558a.414.414,0,0,0,.267.428q4.87,2.425,9.734,4.861c.272.136.272.136.272-.16Q133.6,266.273,133.6,263.889Zm1.149-.016q0,2.408,0,4.816c0,.215.047.253.24.151.428-.225.864-.436,1.294-.652l8.455-4.223a.432.432,0,0,0,.287-.469c-.02-.321,0-.646,0-.968v-8.536c0-.306,0-.308-.263-.177-.623.311-1.242.63-1.871.929a.392.392,0,0,0-.247.417c.007,1.07,0,2.14,0,3.211v2.038a.612.612,0,0,1-.32.595.59.59,0,0,1-.665-.089c-.371-.269-.754-.524-1.116-.8-.189-.146-.283-.117-.414.075-.625.921-1.262,1.833-1.9,2.745a.583.583,0,0,1-.672.291.612.612,0,0,1-.427-.625c0-.084,0-.17,0-.255v-4.408c0-.281-.019-.293-.264-.171-.616.306-1.226.621-1.848.917a.405.405,0,0,0-.269.428C134.749,260.7,134.745,262.285,134.745,263.874Zm3.059-7.922a.5.5,0,0,0,.266-.079l2.6-1.3c.059-.03.154-.043.161-.111.01-.095-.1-.1-.161-.133l-9.68-4.844a.4.4,0,0,0-.409-.008c-.87.441-1.746.874-2.617,1.313-.063.032-.17.042-.16.136.007.072.1.086.156.116q4.84,2.423,9.681,4.841C137.7,255.915,137.766,255.936,137.8,255.952Zm-3.629,1.852c.084-.036.163-.068.238-.1q.934-.464,1.867-.934c.068-.033.172-.049.178-.127.008-.1-.111-.114-.181-.149l-9.61-4.81a.477.477,0,0,0-.477-.006c-.627.323-1.259.632-1.889.949-.068.032-.17.043-.168.133s.106.1.17.131q4.816,2.41,9.636,4.817C134.014,257.741,134.093,257.77,134.176,257.8Zm-2.1-9.07a.881.881,0,0,0,.1.074q4.922,2.461,9.845,4.925a.356.356,0,0,0,.357-.011c.552-.282,1.109-.556,1.662-.835.068-.033.169-.044.17-.132s-.1-.1-.168-.133q-1.4-.7-2.8-1.4l-6.792-3.4c-.128-.064-.25-.148-.409-.068C133.4,248.077,132.75,248.4,132.076,248.734Zm6.191,12.036.054.012c.44-.633.876-1.269,1.321-1.9a.571.571,0,0,1,.9-.162c.253.172.5.356.749.529.052.036.1.112.176.063.052-.035.029-.11.029-.168,0-1.146,0-2.292,0-3.437,0-.232-.068-.234-.249-.144q-1.385.7-2.779,1.387a.34.34,0,0,0-.2.362c.006,1.035,0,2.071,0,3.106Z" transform="translate(-122.17 -246.51)" fill="#6e6b7b"/>
</svg>
