<svg width="169" height="126" viewBox="0 0 169 126" fill="none" xmlns="http://www.w3.org/2000/svg">
<rect width="169" height="125.729" rx="20" fill="#00F886"/>
<path d="M74.296 60.296C76.4247 61.9932 76.3033 65.2763 74.0417 66.7921C72.0252 68.1437 68.998 69.2831 64.5975 69.0865C45.7994 68.2466 39.5635 52.7397 40.0986 44.3883C41.4444 23.3854 59.2656 19.8506 65.2533 20.1427C67.859 20.2698 82.0186 20.9644 87.5309 36.2285C89.7218 42.2953 90.175 49.3946 92.266 53.8675C95.335 60.4326 100.251 63.1393 105.564 63.3943C110.037 63.6089 119.767 61.346 121.769 50.1044C121.769 50.1044 122.091 47.003 121.908 36.9205C121.805 31.1941 122.091 23.3243 122.091 23.3243C122.091 23.3243 121.841 19.9998 125.558 19.9998C128.883 19.9998 128.578 23.5252 128.578 23.5252L128.493 44.18C128.493 44.18 131.254 67.586 107.423 70.0129C100.563 70.7115 92.2941 67.63 87.4521 59.012C85.4284 55.41 84.3408 51.5405 83.2578 45.0064C80.7317 29.7648 70.7226 26.2874 65.3367 26.2121C62.2369 26.1687 45.5091 27.7165 46.2581 46.4915C46.3391 48.5219 47.7492 57.8211 58.7593 62.1558C58.7593 62.1558 66.4243 64.8104 74.296 60.296Z" fill="#6E00E2"/>
<path d="M74.296 60.2966C74.296 60.2966 76.673 58.821 77.8543 61.2019C79.5694 64.6585 72.1778 67.8193 72.1778 67.8193" fill="#6E00E2"/>
<path d="M50.0963 102.248C50.8515 102.85 50.8084 104.014 50.0061 104.552C49.2907 105.032 48.2168 105.436 46.6556 105.366C39.9868 105.068 37.7746 99.5668 37.9644 96.6041C38.4419 89.1531 44.7641 87.899 46.8883 88.0027C47.8127 88.0477 52.836 88.2941 54.7915 93.7093C55.5688 95.8615 55.7296 98.3801 56.4714 99.9669C57.5602 102.296 59.3042 103.256 61.1889 103.347C62.7757 103.423 66.2277 102.62 66.9379 98.6319C66.9379 98.6319 67.052 97.5316 66.9873 93.9548C66.9506 91.9233 67.052 89.1314 67.052 89.1314C67.052 89.1314 66.9633 87.9519 68.2821 87.9519C69.4615 87.9519 69.3535 89.2027 69.3535 89.2027L69.3233 96.5302C69.3233 96.5302 70.3027 104.834 61.8483 105.695C59.4148 105.943 56.4813 104.849 54.7636 101.792C54.0456 100.514 53.6598 99.1414 53.2756 96.8233C52.3794 91.4162 48.8286 90.1826 46.9179 90.1558C45.8182 90.1405 39.8839 90.6895 40.1496 97.3502C40.1783 98.0705 40.6786 101.369 44.5845 102.907C44.5845 102.907 47.3037 103.849 50.0963 102.248Z" fill="#6E00E2"/>
<path d="M50.0963 102.249C50.0963 102.249 50.9395 101.726 51.3587 102.57C51.9671 103.797 49.3448 104.918 49.3448 104.918" fill="#6E00E2"/>
<path d="M24.9781 93.5134C24.1623 93.205 23.434 92.8147 22.7934 92.343C22.1524 91.8715 21.6338 91.3067 21.2378 90.6488C20.8416 89.9909 20.6435 89.2137 20.6435 88.3168C20.6435 87.4085 20.8416 86.5905 21.2378 85.8626C21.6338 85.135 22.1554 84.5176 22.8021 84.0111C23.4487 83.5045 24.1798 83.1145 24.9956 82.8407C25.811 82.5672 26.6385 82.4303 27.4774 82.4303C28.153 82.4303 28.8115 82.5001 29.4524 82.6399C30.0932 82.7796 30.6935 82.9865 31.2527 83.2599C31.812 83.5337 32.3189 83.8713 32.7733 84.2731C33.2277 84.6748 33.6062 85.1437 33.9093 85.6792C34.0375 85.8888 34.0666 86.1014 33.9967 86.3168C33.9268 86.5324 33.8277 86.7041 33.6996 86.832C33.5363 86.9835 33.3239 87.0739 33.0617 87.1028C32.7995 87.132 32.5461 87.0534 32.3014 86.867C31.6255 86.0403 30.9032 85.4608 30.1341 85.129C29.365 84.7971 28.4911 84.6311 27.5124 84.6311C26.9646 84.6311 26.4171 84.7098 25.8694 84.867C25.3216 85.0242 24.8236 85.2543 24.3751 85.5569C23.9265 85.8599 23.5594 86.2411 23.2739 86.7011C22.9883 87.1613 22.8458 87.694 22.8458 88.2993C22.8458 88.9399 23.0145 89.4727 23.3526 89.8976C23.6905 90.3228 24.1186 90.6809 24.6373 90.9718C25.1555 91.263 25.7236 91.4989 26.3414 91.6793C26.9588 91.86 27.5474 92.02 28.1067 92.1596C28.9689 92.4277 29.8108 92.7303 30.6323 93.068C31.4537 93.4059 32.1818 93.819 32.817 94.3082C33.4519 94.7973 33.9617 95.3796 34.3463 96.055C34.7308 96.7304 34.9231 97.5397 34.9231 98.4829C34.9231 99.496 34.722 100.413 34.32 101.234C33.918 102.055 33.3763 102.76 32.6947 103.348C32.013 103.936 31.2204 104.39 30.3177 104.71C29.4144 105.03 28.4677 105.19 27.4774 105.19C26.65 105.19 25.8519 105.08 25.083 104.859C24.3139 104.637 23.606 104.338 22.9593 103.959C22.3127 103.581 21.7474 103.132 21.264 102.614C20.7804 102.096 20.4103 101.54 20.1542 100.946C19.9794 100.573 19.9532 100.262 20.0756 100.011C20.1978 99.761 20.3753 99.5719 20.6085 99.4436C20.8765 99.2925 21.13 99.2602 21.3689 99.3475C21.6076 99.4349 21.8552 99.6417 22.1117 99.9676C22.333 100.433 22.633 100.853 23.0117 101.225C23.3903 101.598 23.8186 101.915 24.2965 102.177C24.774 102.439 25.2928 102.64 25.8519 102.78C26.4112 102.92 26.988 102.989 27.5824 102.989C28.1998 102.989 28.8145 102.896 29.4262 102.71C30.038 102.524 30.5886 102.244 31.0779 101.872C31.5673 101.499 31.9633 101.036 32.2664 100.483C32.5692 99.93 32.7209 99.2925 32.7209 98.5702C32.7209 97.9064 32.5692 97.3505 32.2664 96.9021C31.9633 96.454 31.5613 96.0696 31.0604 95.7492C30.5593 95.429 29.9943 95.1553 29.3651 94.9283C28.7358 94.7012 28.1006 94.4828 27.46 94.2732C26.621 94.0753 25.7935 93.8221 24.9781 93.5134Z" fill="#6E00E2"/>
<path d="M75.8031 91.4781C76.4904 90.5932 77.303 89.8798 78.2413 89.3383C79.1789 88.7968 80.184 88.526 81.2562 88.526C82.2698 88.526 83.1815 88.7154 83.9915 89.0938C84.8013 89.4723 85.4946 90.0108 86.0714 90.7095C86.6482 91.4082 87.0908 92.2527 87.3996 93.2423C87.7083 94.2322 87.8628 95.3384 87.8628 96.5611V96.5786V103.88C87.8628 104.195 87.758 104.456 87.5482 104.666C87.3384 104.876 87.0762 104.981 86.7616 104.981C86.4585 104.981 86.2025 104.876 85.9927 104.666C85.783 104.456 85.6781 104.195 85.6781 103.88V96.631V96.5786C85.6781 94.6921 85.2701 93.2423 84.4546 92.2291C83.6389 91.216 82.4971 90.7095 81.029 90.7095C80.318 90.7095 79.6509 90.8492 79.0276 91.1287C78.4042 91.4082 77.8567 91.7955 77.3848 92.2903C76.9128 92.7854 76.537 93.3705 76.2574 94.0458C75.9777 94.7213 75.8262 95.4492 75.8031 96.2292V103.845C75.8031 104.16 75.6951 104.425 75.4797 104.64C75.264 104.855 75.0047 104.963 74.7019 104.963C74.3988 104.963 74.1397 104.855 73.9241 104.64C73.7084 104.425 73.6007 104.16 73.6007 103.845V83.7225C73.6007 83.4081 73.7084 83.1434 73.9241 82.9277C74.1397 82.7124 74.3988 82.6046 74.7019 82.6046C75.0165 82.6046 75.2787 82.7124 75.4885 82.9277C75.6982 83.1434 75.8031 83.4081 75.8031 83.7225V91.4781Z" fill="#6E00E2"/>
<path d="M92.9575 99.2251C93.2778 99.9648 93.7117 100.611 94.2596 101.164C94.8071 101.717 95.4538 102.157 96.1997 102.483C96.9452 102.809 97.7493 102.972 98.6117 102.972C99.4738 102.972 100.278 102.809 101.024 102.483C101.769 102.157 102.419 101.717 102.972 101.164C103.526 100.611 103.96 99.9648 104.275 99.2251C104.589 98.4858 104.746 97.6967 104.746 96.8583C104.746 96.0084 104.589 95.2106 104.275 94.4653C103.96 93.7202 103.526 93.0708 102.972 92.5176C102.419 91.9646 101.769 91.5279 101.024 91.2075C100.278 90.8874 99.4738 90.7272 98.6117 90.7272C97.7609 90.7272 96.9627 90.8874 96.2172 91.2075C95.4713 91.5279 94.8217 91.9646 94.2683 92.5176C93.7148 93.0708 93.2778 93.7202 92.9575 94.4653C92.6369 95.2106 92.4769 96.0084 92.4769 96.8583C92.4769 97.6967 92.6369 98.4858 92.9575 99.2251ZM90.93 93.6006C91.3669 92.5817 91.964 91.6966 92.7216 90.9455C93.4788 90.1944 94.3644 89.6005 95.3782 89.1639C96.3919 88.7272 97.4696 88.5088 98.6117 88.5088C99.7651 88.5088 100.846 88.7272 101.854 89.1639C102.862 89.6005 103.741 90.1944 104.493 90.9455C105.245 91.6966 105.839 92.5817 106.276 93.6006C106.713 94.6197 106.931 95.7055 106.931 96.8583C106.931 97.9997 106.713 99.0766 106.276 100.09C105.839 101.103 105.245 101.985 104.493 102.736C103.741 103.487 102.862 104.081 101.854 104.518C100.846 104.954 99.7651 105.173 98.6117 105.173C97.4696 105.173 96.3919 104.954 95.3782 104.518C94.3644 104.081 93.4788 103.487 92.7216 102.736C91.964 101.985 91.3669 101.103 90.93 100.09C90.4931 99.0766 90.2747 97.9997 90.2747 96.8583C90.2747 95.7055 90.4931 94.6197 90.93 93.6006Z" fill="#6E00E2"/>
<path d="M111.134 99.2251C111.455 99.9648 111.888 100.611 112.436 101.164C112.984 101.717 113.631 102.157 114.377 102.483C115.122 102.809 115.926 102.972 116.788 102.972C117.651 102.972 118.454 102.809 119.2 102.483C119.946 102.157 120.596 101.717 121.149 101.164C121.703 100.611 122.137 99.9648 122.451 99.2251C122.766 98.4858 122.923 97.6967 122.923 96.8583C122.923 96.0084 122.766 95.2106 122.451 94.4653C122.137 93.7202 121.703 93.0708 121.149 92.5176C120.596 91.9646 119.946 91.5279 119.2 91.2075C118.454 90.8874 117.651 90.7272 116.788 90.7272C115.938 90.7272 115.139 90.8874 114.394 91.2075C113.648 91.5279 112.998 91.9646 112.445 92.5176C111.892 93.0708 111.455 93.7202 111.134 94.4653C110.814 95.2106 110.654 96.0084 110.654 96.8583C110.654 97.6967 110.814 98.4858 111.134 99.2251ZM109.107 93.6006C109.544 92.5817 110.141 91.6966 110.898 90.9455C111.656 90.1944 112.541 89.6005 113.555 89.1639C114.569 88.7272 115.646 88.5088 116.788 88.5088C117.942 88.5088 119.023 88.7272 120.031 89.1639C121.038 89.6005 121.918 90.1944 122.67 90.9455C123.421 91.6966 124.016 92.5817 124.453 93.6006C124.89 94.6197 125.108 95.7055 125.108 96.8583C125.108 97.9997 124.89 99.0766 124.453 100.09C124.016 101.103 123.421 101.985 122.67 102.736C121.918 103.487 121.038 104.081 120.031 104.518C119.023 104.954 117.942 105.173 116.788 105.173C115.646 105.173 114.569 104.954 113.555 104.518C112.541 104.081 111.656 103.487 110.898 102.736C110.141 101.985 109.544 101.103 109.107 100.09C108.67 99.0766 108.451 97.9997 108.451 96.8583C108.451 95.7055 108.67 94.6197 109.107 93.6006Z" fill="#6E00E2"/>
<path d="M129.844 103.881C129.844 104.184 129.736 104.44 129.521 104.649C129.305 104.859 129.046 104.964 128.743 104.964C128.44 104.964 128.181 104.859 127.965 104.649C127.749 104.44 127.642 104.184 127.642 103.881V83.6884C127.642 83.374 127.749 83.1149 127.965 82.9111C128.181 82.7075 128.44 82.6054 128.743 82.6054C129.046 82.6054 129.305 82.7075 129.521 82.9111C129.736 83.1149 129.844 83.374 129.844 83.6884V103.881Z" fill="#6E00E2"/>
<path d="M134.546 96.8583C134.546 97.6967 134.706 98.4858 135.026 99.2251C135.347 99.9648 135.78 100.611 136.328 101.164C136.876 101.717 137.523 102.157 138.268 102.483C139.014 102.809 139.818 102.972 140.68 102.972C141.543 102.972 142.346 102.809 143.092 102.483C143.838 102.157 144.485 101.717 145.032 101.164C145.58 100.611 146.011 99.9648 146.326 99.2251C146.64 98.4858 146.798 97.6967 146.798 96.8583C146.798 96.0084 146.64 95.2106 146.326 94.4653C146.011 93.7202 145.58 93.0708 145.032 92.5176C144.485 91.9646 143.838 91.5279 143.092 91.2075C142.346 90.8874 141.543 90.7272 140.68 90.7272C139.83 90.7272 139.031 90.8874 138.286 91.2075C137.54 91.5279 136.89 91.9646 136.337 92.5176C135.784 93.0708 135.347 93.7202 135.026 94.4653C134.706 95.2106 134.546 96.0084 134.546 96.8583ZM132.343 96.8583C132.343 95.7055 132.562 94.6197 132.999 93.6006C133.436 92.5817 134.033 91.6966 134.79 90.9455C135.548 90.1944 136.433 89.6005 137.447 89.1639C138.461 88.7272 139.538 88.5088 140.68 88.5088C141.822 88.5088 142.894 88.7244 143.896 89.1551C144.898 89.5861 145.775 90.1712 146.527 90.9106C147.278 91.6502 147.873 92.5206 148.31 93.522C148.747 94.5236 148.976 95.5949 149 96.736V96.7709V96.8583V103.828C149 104.142 148.892 104.41 148.677 104.631C148.461 104.853 148.196 104.963 147.881 104.963C147.567 104.963 147.307 104.853 147.104 104.631C146.9 104.41 146.798 104.142 146.798 103.828L146.78 102.326C146.011 103.176 145.105 103.863 144.062 104.387C143.019 104.911 141.892 105.173 140.68 105.173C139.538 105.173 138.461 104.954 137.447 104.518C136.433 104.081 135.548 103.487 134.79 102.736C134.033 101.985 133.436 101.103 132.999 100.09C132.562 99.0766 132.343 97.9997 132.343 96.8583Z" fill="#6E00E2"/>
</svg>
