<svg width="44" height="24" viewBox="0 0 44 24" fill="none" xmlns="http://www.w3.org/2000/svg">
<rect x="0.46875" y="0.827942" width="42.835" height="23" rx="4" fill="#F16523"/>
<g clip-path="url(#clip0_1272_1727)">
<path d="M21.6925 4.82794C21.71 4.86154 21.7472 4.85457 21.7747 4.86513C22.0154 4.95663 22.1772 5.17301 22.1779 5.42891C22.1804 6.66274 22.1779 7.89679 22.181 9.13062C22.1861 11.2668 22.9154 13.1189 24.3689 14.687C24.5435 14.8751 24.6105 15.0885 24.5251 15.3361C24.4429 15.5739 24.2692 15.7108 24.0224 15.7459C23.8088 15.7763 23.6285 15.7002 23.4814 15.5445C22.5437 14.5513 21.8514 13.4103 21.4189 12.1137C21.114 11.2099 20.9564 10.263 20.9521 9.30918C20.9483 8.03667 20.9483 6.7641 20.9521 5.49145C20.9521 5.15167 21.097 4.95684 21.418 4.84696C21.4265 4.844 21.4328 4.83449 21.4391 4.82794H21.6925Z" fill="white"/>
<path d="M39.3029 6.89537C39.2606 6.96701 39.2183 7.03949 39.1742 7.11027C39.0865 7.25143 38.9523 7.28228 38.8139 7.19078C38.647 7.08006 38.4823 6.96595 38.3163 6.85417C38.297 6.84128 38.2776 6.81529 38.2516 6.83008C38.2256 6.84487 38.2398 6.87445 38.2415 6.89727C38.2539 7.08302 38.2649 7.26876 38.2818 7.45408C38.3008 7.66306 38.2121 7.75963 38.0027 7.76724C37.728 7.77738 37.5642 7.76153 37.6134 7.36152C37.6244 7.27087 37.6278 7.17937 37.6346 7.0883C37.6413 6.99722 37.6473 6.90826 37.6557 6.79775C37.459 6.93066 37.2766 7.05343 37.0947 7.1781C37.0507 7.20811 37.007 7.23537 36.9518 7.24044C36.8295 7.25122 36.7536 7.18888 36.6997 7.08724C36.6336 6.96299 36.5227 6.84741 36.6264 6.69209C36.6568 6.64666 36.7021 6.62088 36.7505 6.59764C36.9525 6.50065 37.1536 6.40197 37.3666 6.29821C37.1553 6.19594 36.9556 6.10022 36.7572 6.00365C36.5755 5.91511 36.5387 5.79466 36.6385 5.61801C36.8187 5.29809 36.8906 5.28118 37.1923 5.48531C37.3377 5.58392 37.4833 5.68203 37.6293 5.77966C37.6342 5.78304 37.6426 5.78114 37.654 5.78198C37.6396 5.57067 37.6329 5.36106 37.6082 5.15292C37.59 5.005 37.6365 4.90167 37.7622 4.82898H38.1214C38.2573 4.89935 38.3002 5.00711 38.2814 5.15926C38.2558 5.36592 38.2495 5.57511 38.2336 5.7991C38.4348 5.66302 38.6227 5.53433 38.812 5.40797C38.9548 5.31309 39.0886 5.34457 39.1782 5.49122C39.2205 5.55905 39.2627 5.62646 39.3039 5.69387V5.84178C39.2599 5.92104 39.1901 5.98286 39.1061 6.01696C38.9143 6.10444 38.7258 6.20017 38.5225 6.29885C38.7213 6.39563 38.9048 6.48903 39.0918 6.57355C39.1783 6.60906 39.252 6.67 39.3031 6.7483L39.3029 6.89537Z" fill="white"/>
<path d="M35.6904 8.62603C35.6935 9.14627 35.6973 9.66609 35.6117 10.1823C35.3737 11.6206 34.7165 12.8316 33.6402 13.8151C32.709 14.665 31.6142 15.1931 30.3649 15.3659C28.4805 15.6265 26.7997 15.1384 25.3569 13.8961C24.245 12.9376 23.5699 11.7183 23.307 10.2734C23.2447 9.92738 23.2139 9.57645 23.2149 9.22488C23.2149 8.70801 23.2149 8.19136 23.2149 7.6745C23.2176 6.27669 24.1835 5.12505 25.5615 4.8755C27.07 4.60206 28.5754 5.67256 28.8112 7.18553C28.8408 7.39053 28.8543 7.59755 28.8515 7.80467C28.85 8.26166 28.85 8.71872 28.8515 9.17585C28.8515 9.53508 29.107 9.80471 29.4479 9.8064C29.7938 9.8083 30.0535 9.53867 30.0545 9.17247C30.0558 8.67695 30.0545 8.18122 30.0545 7.68549C30.0545 6.27711 31.0137 5.12865 32.3986 4.87507C33.9175 4.59699 35.4311 5.68545 35.6527 7.21448C35.7178 7.66246 35.6775 8.11297 35.6891 8.56221C35.6908 8.58376 35.6904 8.60489 35.6904 8.62603ZM24.4464 8.48318C24.4464 8.75006 24.4451 8.95398 24.4464 9.15789C24.4455 9.54816 24.488 9.93732 24.5732 10.3182C25.2001 13.0257 27.8926 14.6997 30.6054 14.0687C32.807 13.5565 34.4128 11.577 34.4512 9.31975C34.4605 8.75746 34.4536 8.19474 34.4536 7.63224C34.4533 7.53741 34.4446 7.44279 34.4276 7.34951C34.2811 6.53322 33.4572 5.94958 32.6429 6.08588C31.8363 6.2209 31.2905 6.86223 31.2858 7.68105C31.2837 8.1734 31.2858 8.66554 31.2858 9.15768C31.2887 9.24941 31.2848 9.34122 31.2742 9.43238C31.1292 10.423 30.3265 11.0806 29.324 11.0324C28.4435 10.9902 27.6729 10.2311 27.6278 9.35293C27.5995 8.80141 27.6224 8.24926 27.6166 7.69732C27.6175 7.58137 27.6083 7.46556 27.5892 7.3512C27.4442 6.56935 26.7374 6.0303 25.9101 6.07362C25.1574 6.11271 24.5093 6.7589 24.4563 7.52363C24.4326 7.86426 24.4538 8.20531 24.4464 8.48318Z" fill="white"/>
<path d="M18.8916 14.1718C18.6572 14.3994 18.3992 14.6013 18.1218 14.774C15.6176 16.3141 12.3168 14.8294 11.8086 11.9353C11.4126 9.68064 12.8816 7.54007 15.1341 7.09125C17.3867 6.64243 19.6211 8.1478 20.0507 10.4088C20.1014 10.6675 20.1279 10.9303 20.1299 11.1938C20.1319 12.389 20.1319 13.5841 20.1299 14.7791C20.1299 15.1062 19.9332 15.3615 19.6422 15.419C19.2382 15.4982 18.899 15.2153 18.8923 14.7888C18.8889 14.5932 18.8916 14.3975 18.8916 14.1718ZM18.8874 11.2082C18.899 9.58977 17.5836 8.25895 15.9591 8.2469C14.3276 8.23486 12.9904 9.54984 12.9752 11.1814C12.96 12.8074 14.2819 14.1426 15.9162 14.156C17.6033 14.1697 18.9128 12.7693 18.8874 11.2082Z" fill="white"/>
<path d="M8.00239 13.1468L8.49537 11.9488C9.10888 10.4566 9.72245 8.96425 10.3361 7.47184C10.4498 7.19524 10.6695 7.0469 10.9461 7.05704C11.07 7.06069 11.1897 7.10205 11.2894 7.17561C11.3891 7.24917 11.464 7.35142 11.504 7.46867C11.5644 7.64152 11.5346 7.80529 11.4666 7.97011C10.8528 9.45857 10.24 10.9475 9.6282 12.437C9.2787 13.2869 8.92961 14.137 8.58095 14.9873C8.47784 15.2391 8.25512 15.3964 7.99795 15.3955C7.74438 15.3955 7.5206 15.2391 7.42002 14.994C6.45772 12.6516 5.49457 10.3094 4.53058 7.96736C4.35519 7.54474 4.5815 7.19988 4.85219 7.09719C5.17296 6.97569 5.51401 7.11832 5.652 7.44648C5.83562 7.88284 6.01376 8.32173 6.19379 8.75977C6.78081 10.1871 7.36769 11.6146 7.95442 13.0422C7.96731 13.0736 7.98274 13.1041 8.00239 13.1468Z" fill="white"/>
<path d="M26.6036 18.9459C26.5983 18.7557 26.6137 18.5275 26.5934 18.2995C26.5898 18.2594 26.5877 18.2247 26.6376 18.2076C26.9083 18.1157 27.1788 18.0282 27.4714 18.0766C27.5526 18.0899 27.632 18.1117 27.6929 18.1668C27.7383 18.2091 27.7721 18.2046 27.8218 18.1772C27.9903 18.0788 28.1879 18.0422 28.3805 18.0736C28.6049 18.1104 28.7479 18.2554 28.7862 18.4838C28.817 18.6689 28.7991 18.8557 28.8018 19.0416C28.8048 19.2489 28.7993 19.4564 28.8041 19.6635C28.8058 19.7387 28.791 19.7753 28.7074 19.7645C28.618 19.7529 28.498 19.803 28.4462 19.7434C28.402 19.6923 28.431 19.5762 28.4308 19.4898C28.4297 19.2363 28.4308 18.9827 28.4308 18.7308C28.4308 18.6129 28.4096 18.5003 28.2943 18.4428C28.163 18.3773 28.0343 18.4166 27.9105 18.4777C27.8725 18.4965 27.8811 18.5277 27.8814 18.559C27.8841 18.9351 27.8852 19.3111 27.8894 19.687C27.8894 19.7442 27.8759 19.7649 27.8137 19.7664C27.52 19.774 27.52 19.7761 27.52 19.4845C27.52 19.2386 27.52 18.9926 27.52 18.7464C27.52 18.627 27.5035 18.5093 27.3852 18.4457C27.2584 18.3779 27.1327 18.4159 27.0089 18.4639C26.9586 18.4836 26.9727 18.5254 26.9727 18.5622C26.9727 18.9311 26.9698 19.3003 26.9746 19.6692C26.9746 19.7508 26.9508 19.7675 26.874 19.7666C26.6042 19.7639 26.6042 19.7666 26.6042 19.5023L26.6036 18.9459Z" fill="white"/>
<path d="M16.5553 19.755C16.5484 19.7579 16.5413 19.7603 16.5341 19.762C16.404 19.762 16.2512 19.8043 16.1502 19.7493C16.0492 19.6944 16.0445 19.5251 15.9982 19.4057C15.9137 19.1864 15.9154 19.1856 15.6796 19.1856C15.5249 19.1856 15.3694 19.1938 15.2147 19.1826C15.1124 19.175 15.0723 19.216 15.0457 19.3047C15.0051 19.4351 14.9514 19.5615 14.9083 19.6912C14.8897 19.7474 14.8606 19.7665 14.8016 19.7637C14.6959 19.7586 14.5903 19.7622 14.487 19.7622C14.4658 19.7291 14.4899 19.7052 14.4988 19.6817C14.7699 18.9781 15.0433 18.2752 15.3123 17.5707C15.3383 17.5029 15.3707 17.4837 15.4408 17.4845C15.7134 17.4877 15.7142 17.4845 15.8091 17.7394C16.0486 18.3836 16.2881 19.0279 16.5276 19.6724C16.536 19.6984 16.5447 19.7248 16.5553 19.755ZM15.5108 18.0382C15.4155 18.3042 15.3299 18.544 15.2432 18.7837C15.2272 18.8285 15.254 18.8301 15.2855 18.8301C15.4334 18.8301 15.5813 18.8301 15.7293 18.8301C15.7688 18.8301 15.7897 18.8211 15.773 18.7746C15.6872 18.539 15.6042 18.3025 15.5108 18.0382Z" fill="white"/>
<path d="M17.1635 17.7299V18.0775C17.1635 18.1166 17.1618 18.1426 17.221 18.125C17.7997 17.9522 18.1945 18.2425 18.2245 18.8595C18.2541 19.4622 17.8029 19.8738 17.2039 19.7906C17.0823 19.7755 16.9621 19.7505 16.8446 19.7157C16.8081 19.7046 16.7741 19.6946 16.78 19.6397C16.8115 19.3491 16.7916 19.0575 16.7937 18.7663C16.7973 18.3169 16.796 17.8674 16.7937 17.4182C16.7937 17.3468 16.8005 17.3039 16.8877 17.3161C16.975 17.3284 17.0927 17.2783 17.1496 17.3373C17.2013 17.392 17.1607 17.505 17.1643 17.5921C17.1648 17.6394 17.1635 17.6851 17.1635 17.7299ZM17.1635 18.9542C17.1635 19.0875 17.1658 19.2211 17.1622 19.3542C17.1607 19.4066 17.1804 19.4284 17.2288 19.4415C17.4997 19.5148 17.7237 19.3819 17.7894 19.1089C17.8108 19.0164 17.8165 18.9209 17.8063 18.8266C17.7746 18.5014 17.5428 18.334 17.2656 18.431C17.1939 18.4559 17.1567 18.4923 17.1616 18.5753C17.1688 18.7019 17.1635 18.8287 17.1635 18.9555V18.9542Z" fill="white"/>
<path d="M20.0242 18.9284C20.0294 19.0481 20.0116 19.1676 19.9716 19.2805C19.8558 19.626 19.5468 19.8299 19.1825 19.8009C18.8259 19.7735 18.5533 19.5161 18.4867 19.1459C18.4555 18.9833 18.461 18.8158 18.5028 18.6556C18.6017 18.2827 18.8899 18.0557 19.2595 18.0616C19.629 18.0676 19.9198 18.311 20.0012 18.6884C20.0196 18.767 20.0274 18.8477 20.0242 18.9284ZM18.8802 18.9284C18.8774 19.0465 18.892 19.1566 18.9414 19.2604C19.0027 19.3893 19.102 19.4609 19.2476 19.4607C19.3932 19.4605 19.498 19.391 19.5528 19.2596C19.5965 19.1578 19.619 19.0482 19.619 18.9374C19.619 18.8266 19.5965 18.717 19.5528 18.6153C19.4972 18.4817 19.3926 18.4071 19.2402 18.4092C19.0879 18.4114 18.9919 18.4938 18.9338 18.6252C18.8935 18.7207 18.8752 18.824 18.8802 18.9276V18.9284Z" fill="white"/>
<path d="M29.1118 18.9252C29.112 18.7883 29.1357 18.6525 29.182 18.5237C29.3001 18.2108 29.5642 18.0377 29.8844 18.0633C30.2172 18.0903 30.4482 18.2957 30.5147 18.6294C30.5397 18.75 30.5443 18.8739 30.5285 18.996C30.5196 19.0626 30.4959 19.0805 30.4302 19.0805C30.1595 19.0769 29.8888 19.0786 29.6181 19.079C29.5102 19.079 29.4992 19.093 29.5323 19.1929C29.5824 19.3442 29.6879 19.4315 29.8466 19.4509C29.9797 19.4676 30.115 19.4513 30.2404 19.4036C30.3019 19.3804 30.3298 19.3848 30.356 19.4524C30.4526 19.702 30.4553 19.7001 30.1916 19.7658C30.0226 19.8081 29.8518 19.8195 29.6811 19.7742C29.347 19.6855 29.1344 19.3958 29.112 18.9994C29.1106 18.9742 29.1118 18.9497 29.1118 18.9252ZM29.8278 18.7695C29.9154 18.7695 30.0033 18.7695 30.091 18.7695C30.142 18.7695 30.1563 18.7519 30.1506 18.6995C30.1314 18.5241 30.0179 18.3997 29.8611 18.3904C29.6921 18.3805 29.567 18.4874 29.523 18.6718C29.5059 18.7431 29.5129 18.7775 29.5968 18.7705C29.6729 18.7652 29.7504 18.7697 29.8278 18.7695Z" fill="white"/>
<path d="M21.6958 18.8462C21.7046 19.0588 21.6789 19.3157 21.7125 19.5712C21.7173 19.6082 21.7158 19.6388 21.6713 19.6547C21.3847 19.7567 21.0965 19.8412 20.7861 19.7825C20.5063 19.7297 20.3476 19.5528 20.3423 19.2648C20.3366 18.903 20.3423 18.5411 20.3379 18.1793C20.3379 18.1127 20.359 18.0984 20.4224 18.0977C20.7043 18.095 20.7043 18.0929 20.7043 18.3699C20.7043 18.6089 20.7043 18.8479 20.7043 19.0867C20.7043 19.3825 20.8657 19.507 21.1563 19.437C21.1869 19.4296 21.2165 19.4174 21.2474 19.4116C21.3139 19.3996 21.334 19.3654 21.3332 19.2956C21.3287 18.9339 21.3332 18.5719 21.3291 18.2101C21.3291 18.1275 21.3418 18.0943 21.4348 18.0967C21.6945 18.103 21.6947 18.0981 21.6947 18.36L21.6958 18.8462Z" fill="white"/>
<path d="M24.9197 18.8041C24.9197 19.0921 24.9163 19.3802 24.9218 19.6682C24.9233 19.7499 24.8981 19.7723 24.8212 19.765C24.7547 19.7586 24.6877 19.7586 24.6211 19.765C24.5448 19.7723 24.5281 19.7419 24.5284 19.6701C24.5311 19.101 24.5283 18.532 24.5319 17.9629C24.5319 17.8718 24.5161 17.8321 24.4136 17.8397C24.2771 17.8496 24.1389 17.8384 24.0024 17.8437C23.9318 17.8465 23.9058 17.831 23.9063 17.7533C23.9077 17.4866 23.9046 17.4864 24.1727 17.4864C24.6122 17.4864 25.0518 17.4879 25.4913 17.4849C25.5612 17.4849 25.5969 17.4976 25.5868 17.5758C25.5762 17.662 25.6238 17.7776 25.5657 17.8279C25.5171 17.8701 25.4046 17.8412 25.3205 17.8418C25.2149 17.8429 25.1092 17.8467 25.0036 17.8406C24.9322 17.8365 24.9161 17.8617 24.9169 17.9295C24.9222 18.2209 24.9197 18.5117 24.9197 18.8041Z" fill="white"/>
<path d="M22.1824 18.962C22.1824 18.8141 22.1798 18.6662 22.1836 18.5198C22.1851 18.4576 22.168 18.4245 22.1021 18.4352C22.0175 18.4479 21.9977 18.4065 22.0076 18.3327C22.0115 18.3047 22.0115 18.2763 22.0076 18.2482C21.9941 18.1576 22.0144 18.0984 22.123 18.1083C22.1773 18.1132 22.1836 18.0785 22.183 18.0344C22.1811 17.9256 22.1843 17.8165 22.1815 17.7079C22.1802 17.6587 22.1955 17.6344 22.247 17.6407C22.2505 17.641 22.2541 17.641 22.2576 17.6407C22.5551 17.6282 22.5551 17.6282 22.5551 17.9281C22.5551 18.0997 22.5551 18.0997 22.7242 18.0997C22.7347 18.0997 22.7453 18.0997 22.7559 18.0997C22.8315 18.1064 22.9403 18.0642 22.9754 18.1176C23.0236 18.1914 22.9879 18.301 22.9908 18.3953C22.9925 18.4502 22.9511 18.4433 22.9169 18.4435C22.8184 18.4435 22.7199 18.4456 22.621 18.4435C22.5716 18.4422 22.553 18.4593 22.5534 18.51C22.5553 18.7875 22.5545 19.0647 22.5551 19.3422C22.5551 19.4337 22.6041 19.4753 22.6939 19.4763C22.7574 19.4797 22.8208 19.4689 22.8795 19.4447C22.961 19.407 22.9955 19.4351 23.0063 19.5152C23.0091 19.5254 23.0128 19.5353 23.0172 19.5448C23.0806 19.7451 23.0806 19.7456 22.8784 19.7967C22.8376 19.8071 22.7963 19.8152 22.7546 19.821C22.3875 19.8694 22.1824 19.6902 22.1813 19.3208C22.1821 19.2008 22.1824 19.0823 22.1824 18.962Z" fill="white"/>
<path d="M10.9752 17.872C10.9752 18.0992 10.9752 18.0992 11.2077 18.0992C11.4095 18.0992 11.4095 18.0992 11.4095 18.3014C11.4095 18.4434 11.4095 18.4434 11.2615 18.4434C10.975 18.4434 10.975 18.4434 10.975 18.7253C10.975 18.9155 10.975 19.1057 10.975 19.2946C10.9761 19.4507 11.0173 19.4871 11.1734 19.4725C11.2013 19.4696 11.229 19.4644 11.256 19.4571C11.3993 19.4186 11.3993 19.4184 11.4462 19.5657C11.5007 19.7398 11.5007 19.7396 11.3222 19.789C11.1988 19.8231 11.0745 19.8393 10.9475 19.8119C10.7309 19.7649 10.612 19.6274 10.6094 19.4051C10.6054 19.1171 10.605 18.8288 10.6094 18.5408C10.6107 18.4584 10.5883 18.4217 10.5038 18.4335C10.4349 18.4432 10.4182 18.4079 10.4243 18.3473C10.4283 18.3122 10.4283 18.2767 10.4243 18.2416C10.4142 18.1558 10.4324 18.0981 10.5363 18.1083C10.5997 18.1146 10.6097 18.0757 10.6082 18.0223C10.6052 17.9166 10.6082 17.811 10.6065 17.7053C10.6052 17.6552 10.6223 17.636 10.6733 17.6383C10.7436 17.643 10.8142 17.643 10.8846 17.6383C10.9617 17.6314 10.9845 17.6631 10.9771 17.7345C10.9716 17.7803 10.9752 17.8264 10.9752 17.872Z" fill="white"/>
<path d="M12.924 19.803C12.773 19.798 12.6236 19.7695 12.4813 19.7185C12.4391 19.7043 12.4154 19.6887 12.4391 19.6359C12.471 19.5621 12.4718 19.4603 12.5236 19.4138C12.5855 19.3593 12.665 19.4499 12.7417 19.4611C12.822 19.4728 12.9008 19.4875 12.9819 19.4732C13.0572 19.4599 13.1117 19.4235 13.1322 19.3464C13.1422 19.3123 13.1412 19.276 13.1295 19.2425C13.1177 19.209 13.0956 19.1801 13.0664 19.1598C13.0181 19.125 12.967 19.0943 12.9135 19.0681C12.8425 19.0301 12.7677 18.9986 12.6981 18.958C12.5232 18.8557 12.4458 18.7015 12.4636 18.4995C12.4811 18.3008 12.5999 18.1825 12.7759 18.114C12.9944 18.0295 13.2104 18.0595 13.4234 18.1394C13.4299 18.1419 13.44 18.1424 13.4426 18.147C13.4971 18.244 13.4113 18.316 13.3982 18.4029C13.3908 18.4504 13.3678 18.4699 13.3177 18.4521C13.226 18.4163 13.1286 18.397 13.0301 18.3951C12.9498 18.3963 12.8708 18.4128 12.8467 18.5045C12.8226 18.5962 12.871 18.6603 12.9523 18.6987C13.0536 18.7469 13.1584 18.7877 13.2585 18.838C13.4781 18.9483 13.5668 19.1146 13.5446 19.3625C13.5269 19.5628 13.3995 19.702 13.1738 19.7692C13.0927 19.7929 13.0085 19.8043 12.924 19.803Z" fill="white"/>
<path d="M9.70015 18.625C9.70015 18.2772 9.70184 17.9294 9.69867 17.5815C9.69867 17.5133 9.70776 17.4759 9.78785 17.4852C9.88146 17.4953 10.0032 17.4474 10.0625 17.5036C10.1219 17.5598 10.0811 17.6828 10.0816 17.7764C10.0833 18.4016 10.0816 19.0271 10.0843 19.6524C10.0843 19.735 10.0716 19.7777 9.97739 19.7648C9.88822 19.7525 9.76819 19.803 9.71621 19.7437C9.67184 19.6929 9.70058 19.5769 9.70036 19.4901C9.69952 19.2012 9.70015 18.9132 9.70015 18.625Z" fill="white"/>
<path d="M26.1674 18.9411C26.1674 19.1836 26.1649 19.4271 26.1689 19.6686C26.1699 19.7379 26.1581 19.7726 26.0789 19.765C25.9886 19.7563 25.8701 19.7918 25.8139 19.7464C25.7539 19.698 25.7951 19.5752 25.7947 19.4852C25.7928 19.0564 25.7947 18.6277 25.7921 18.1987C25.7921 18.1246 25.8035 18.0878 25.8881 18.0977C25.9546 18.1047 26.0216 18.1047 26.0882 18.0977C26.1571 18.0914 26.1695 18.1189 26.1687 18.1822C26.1653 18.435 26.1674 18.6881 26.1674 18.9411Z" fill="white"/>
<path d="M11.5664 17.5513C11.5753 17.4767 11.6087 17.4165 11.6786 17.3854C11.7452 17.3556 11.8012 17.3806 11.8464 17.434C11.9301 17.5326 12.0137 17.6313 12.0974 17.7299C12.1693 17.8144 12.0657 17.8406 12.0416 17.8919C12.015 17.9488 11.9772 17.9232 11.9404 17.8962C11.8418 17.8233 11.7425 17.7516 11.6425 17.6808C11.6202 17.6671 11.6016 17.6481 11.5883 17.6255C11.5751 17.603 11.5675 17.5775 11.5664 17.5513Z" fill="white"/>
<path d="M25.9766 17.7577C25.8498 17.7596 25.753 17.6648 25.7501 17.5335C25.7469 17.3981 25.8437 17.2943 25.973 17.2946C26.0036 17.2946 26.034 17.3008 26.0622 17.3127C26.0904 17.3247 26.1159 17.3421 26.1374 17.364C26.1588 17.3859 26.1756 17.4119 26.1868 17.4404C26.1981 17.4689 26.2036 17.4993 26.2029 17.53C26.2031 17.5598 26.1973 17.5893 26.186 17.6169C26.1747 17.6446 26.158 17.6697 26.137 17.6908C26.116 17.712 26.091 17.7288 26.0635 17.7403C26.036 17.7518 26.0064 17.7577 25.9766 17.7577Z" fill="white"/>
<path d="M33.4899 9.12621C33.511 11.0962 32.1918 12.6249 30.5415 13.088C28.2564 13.7298 25.8891 12.2481 25.4766 9.91629C25.4033 9.5017 25.4029 9.0831 25.4181 8.66534C25.4235 8.50483 25.4922 8.35298 25.6092 8.24296C25.7262 8.13293 25.882 8.07367 26.0425 8.07811C26.377 8.08297 26.6392 8.34711 26.6498 8.69598C26.6555 8.87876 26.6498 9.06176 26.6523 9.24539C26.6619 9.90883 26.9066 10.5474 27.3429 11.0473C27.7791 11.5472 28.3786 11.8762 29.0346 11.9755C30.5924 12.2147 32.0486 11.1007 32.2339 9.53108C32.2668 9.25046 32.2463 8.96921 32.2537 8.68816C32.2611 8.40712 32.45 8.16475 32.7119 8.09882C32.8421 8.06431 32.98 8.07326 33.1047 8.12434C33.2294 8.17541 33.334 8.2658 33.4026 8.38177C33.4677 8.49122 33.4882 8.61104 33.4897 8.7355C33.491 8.86609 33.4899 8.99604 33.4899 9.12621Z" fill="white"/>
</g>
<defs>
<clipPath id="clip0_1272_1727">
<rect width="34.835" height="15" fill="white" transform="translate(4.46875 4.82794)"/>
</clipPath>
</defs>
</svg>
