<svg id="Vendors" xmlns="http://www.w3.org/2000/svg" width="24.204" height="22.809" viewBox="0 0 24.204 22.809">
  <path id="Path_273" data-name="Path 273" d="M767.191,282.1l-1.578,1.143-1.161-1.96-1.161,1.96-1.578-1.143,1.506-1.723-2.232-.49.617-1.85,2.086.907-.2-2.141h1.905l-.2,2.232,2.05-.889.58,1.814-2.1.472Zm-2.785-7.79a5.713,5.713,0,1,0,5.713,5.713,5.714,5.714,0,0,0-5.713-5.713" transform="translate(-745.914 -262.928)" fill="#6e6b7b"/>
  <g id="Group_332" data-name="Group 332">
    <g id="Group_331" data-name="Group 331">
      <path id="Path_423" data-name="Path 423" d="M4.816,20.041v-.915a1.332,1.332,0,0,1,.577-1.141,15.334,15.334,0,0,1,7.872-2.169.31.31,0,0,1,.113.014,9.7,9.7,0,0,1,.831-2.788c-.31-.028-.62-.042-.943-.042a18.132,18.132,0,0,0-9.308,2.563A4.115,4.115,0,0,0,2,19.126v3.732H15.04a10.044,10.044,0,0,1-1.366-2.816Z" transform="translate(-2 -0.049)" fill="#6e6b7b"/>
      <path id="Path_424" data-name="Path 424" d="M11.633,15.266A5.633,5.633,0,1,0,6,9.633,5.631,5.631,0,0,0,11.633,15.266Zm0-8.449A2.816,2.816,0,1,1,8.816,9.633,2.825,2.825,0,0,1,11.633,6.816Z" transform="translate(-0.273 -4)" fill="#6e6b7b"/>
    </g>
  </g>
</svg>
